<svg xmlns="http://www.w3.org/2000/svg" class="railroad-diagram" height="62" viewBox="0 0 577.5 62" width="577.5">
<style>
svg.railroad-diagram { background: #fafafa; }
svg.railroad-diagram path { stroke-width: 2; stroke: #333; fill: none; }
svg.railroad-diagram text {
    font: bold 14px monospace; fill: #333;
    text-anchor: middle;
}
svg.railroad-diagram text.comment { font: italic 12px monospace; fill: #888; }
svg.railroad-diagram rect { stroke-width: 2; stroke: #333; fill: #fff; }
svg.railroad-diagram rect.group-box {
    stroke: #aaa; stroke-dasharray: 4 2; fill: none;
}
</style>
<g transform="translate(.5 .5)">
<g>
<path d="M20 21v20m10 -20v20m-10 -10h20" /></g><path d="M40 31h10" /><g>
<path d="M50 31h0.0" /><path d="M527.5 31h0.0" /><g class="terminal ">
<path d="M50.0 31h0.0" /><path d="M78.5 31h0.0" /><rect height="22" rx="10" ry="10" width="28.5" x="50" y="20"></rect><text x="64.25" y="35">(</text></g><path d="M78.5 31h10" /><path d="M88.5 31h10" /><g class="non-terminal ">
<path d="M98.5 31h0.0" /><path d="M237.5 31h0.0" /><rect height="22" width="139" x="98.5" y="20"></rect><text x="168" y="35">BindingPattern</text></g><path d="M237.5 31h10" /><path d="M247.5 31h10" /><g class="terminal ">
<path d="M257.5 31h0.0" /><path d="M286.0 31h0.0" /><rect height="22" rx="10" ry="10" width="28.5" x="257.5" y="20"></rect><text x="271.75" y="35">,</text></g><path d="M286.0 31h10" /><path d="M296.0 31h10" /><g class="non-terminal ">
<path d="M306.0 31h0.0" /><path d="M479.0 31h0.0" /><rect height="22" width="173" x="306" y="20"></rect><text x="392.5" y="35">BindingPatternList</text></g><path d="M479.0 31h10" /><path d="M489.0 31h10" /><g class="terminal ">
<path d="M499.0 31h0.0" /><path d="M527.5 31h0.0" /><rect height="22" rx="10" ry="10" width="28.5" x="499" y="20"></rect><text x="513.25" y="35">)</text></g></g><path d="M527.5 31h10" /><path d="M 537.5 31 h 20 m -10 -10 v 20 m 10 -20 v 20"></path></g></svg>