<svg xmlns="http://www.w3.org/2000/svg" class="railroad-diagram" height="139" viewBox="0 0 259.5 139" width="259.5">
<style>
svg.railroad-diagram { background: #fafafa; }
svg.railroad-diagram path { stroke-width: 2; stroke: #333; fill: none; }
svg.railroad-diagram text {
    font: bold 14px monospace; fill: #333;
    text-anchor: middle;
}
svg.railroad-diagram text.comment { font: italic 12px monospace; fill: #888; }
svg.railroad-diagram rect { stroke-width: 2; stroke: #333; fill: #fff; }
svg.railroad-diagram rect.group-box {
    stroke: #aaa; stroke-dasharray: 4 2; fill: none;
}
</style>
<g transform="translate(.5 .5)">
<g>
<path d="M20 30v20m10 -20v20m-10 -10h20" /></g><g>
<path d="M40 40h0.0" /><path d="M219.5 40h0.0" /><path d="M40.0 40a10 10 0 0 0 10 -10v0a10 10 0 0 1 10 -10" /><g>
<path d="M60.0 20h139.5" /></g><path d="M199.5 20a10 10 0 0 1 10 10v0a10 10 0 0 0 10 10" /><path d="M40.0 40h20" /><g>
<path d="M60.0 40h0.0" /><path d="M199.5 40h0.0" /><path d="M60.0 40h10" /><g>
<path d="M70.0 40h0.0" /><path d="M189.5 40h0.0" /><path d="M70.0 40h20" /><g class="non-terminal ">
<path d="M90.0 40h4.25" /><path d="M165.25 40h4.25" /><rect height="22" width="71" x="94.25" y="29"></rect><text x="129.75" y="44">Import</text></g><path d="M169.5 40h20" /><path d="M70.0 40a10 10 0 0 1 10 10v10a10 10 0 0 0 10 10" /><g class="non-terminal ">
<path d="M90.0 70h4.25" /><path d="M165.25 70h4.25" /><rect height="22" width="71" x="94.25" y="59"></rect><text x="129.75" y="74">Pragma</text></g><path d="M169.5 70a10 10 0 0 0 10 -10v-10a10 10 0 0 1 10 -10" /><path d="M70.0 40a10 10 0 0 1 10 10v40a10 10 0 0 0 10 10" /><g class="non-terminal ">
<path d="M90.0 100h0.0" /><path d="M169.5 100h0.0" /><rect height="22" width="79.5" x="90" y="89"></rect><text x="129.75" y="104">TopDecl</text></g><path d="M169.5 100a10 10 0 0 0 10 -10v-40a10 10 0 0 1 10 -10" /></g><path d="M189.5 40h10" /><path d="M70.0 40a10 10 0 0 0 -10 10v59a10 10 0 0 0 10 10" /><g>
<path d="M70.0 119h119.5" /></g><path d="M189.5 119a10 10 0 0 0 10 -10v-59a10 10 0 0 0 -10 -10" /></g><path d="M199.5 40h20" /></g><path d="M 219.5 40 h 20 m -10 -10 v 20 m 10 -20 v 20"></path></g></svg>