<svg xmlns="http://www.w3.org/2000/svg" class="railroad-diagram" height="182" viewBox="0 0 207.0 182" width="207.0">
<style>
svg.railroad-diagram { background: #fafafa; }
svg.railroad-diagram path { stroke-width: 2; stroke: #333; fill: none; }
svg.railroad-diagram text {
    font: bold 14px monospace; fill: #333;
    text-anchor: middle;
}
svg.railroad-diagram text.comment { font: italic 12px monospace; fill: #888; }
svg.railroad-diagram rect { stroke-width: 2; stroke: #333; fill: #fff; }
svg.railroad-diagram rect.group-box {
    stroke: #aaa; stroke-dasharray: 4 2; fill: none;
}
</style>
<g transform="translate(.5 .5)">
<g>
<path d="M20 21v20m10 -20v20m-10 -10h20" /></g><path d="M40 31h10" /><g>
<path d="M50 31h0.0" /><path d="M157.0 31h0.0" /><g class="terminal ">
<path d="M50.0 31h0.0" /><path d="M78.5 31h0.0" /><rect height="22" rx="10" ry="10" width="28.5" x="50" y="20"></rect><text x="64.25" y="35">\</text></g><path d="M78.5 31h10" /><g>
<path d="M88.5 31h0.0" /><path d="M157.0 31h0.0" /><path d="M88.5 31h20" /><g class="terminal ">
<path d="M108.5 31h0.0" /><path d="M137.0 31h0.0" /><rect height="22" rx="10" ry="10" width="28.5" x="108.5" y="20"></rect><text x="122.75" y="35">\</text></g><path d="M137.0 31h20" /><path d="M88.5 31a10 10 0 0 1 10 10v10a10 10 0 0 0 10 10" /><g class="terminal ">
<path d="M108.5 61h0.0" /><path d="M137.0 61h0.0" /><rect height="22" rx="10" ry="10" width="28.5" x="108.5" y="50"></rect><text x="122.75" y="65">&quot;</text></g><path d="M137.0 61a10 10 0 0 0 10 -10v-10a10 10 0 0 1 10 -10" /><path d="M88.5 31a10 10 0 0 1 10 10v40a10 10 0 0 0 10 10" /><g class="terminal ">
<path d="M108.5 91h0.0" /><path d="M137.0 91h0.0" /><rect height="22" rx="10" ry="10" width="28.5" x="108.5" y="80"></rect><text x="122.75" y="95">n</text></g><path d="M137.0 91a10 10 0 0 0 10 -10v-40a10 10 0 0 1 10 -10" /><path d="M88.5 31a10 10 0 0 1 10 10v70a10 10 0 0 0 10 10" /><g class="terminal ">
<path d="M108.5 121h0.0" /><path d="M137.0 121h0.0" /><rect height="22" rx="10" ry="10" width="28.5" x="108.5" y="110"></rect><text x="122.75" y="125">t</text></g><path d="M137.0 121a10 10 0 0 0 10 -10v-70a10 10 0 0 1 10 -10" /><path d="M88.5 31a10 10 0 0 1 10 10v100a10 10 0 0 0 10 10" /><g class="terminal ">
<path d="M108.5 151h0.0" /><path d="M137.0 151h0.0" /><rect height="22" rx="10" ry="10" width="28.5" x="108.5" y="140"></rect><text x="122.75" y="155">r</text></g><path d="M137.0 151a10 10 0 0 0 10 -10v-100a10 10 0 0 1 10 -10" /></g></g><path d="M157.0 31h10" /><path d="M 167.0 31 h 20 m -10 -10 v 20 m 10 -20 v 20"></path></g></svg>