<svg xmlns="http://www.w3.org/2000/svg" class="railroad-diagram" height="230" viewBox="0 0 565.5 230" width="565.5">
<style>
svg.railroad-diagram { background: #fafafa; }
svg.railroad-diagram path { stroke-width: 2; stroke: #333; fill: none; }
svg.railroad-diagram text {
    font: bold 14px monospace; fill: #333;
    text-anchor: middle;
}
svg.railroad-diagram text.comment { font: italic 12px monospace; fill: #888; }
svg.railroad-diagram rect { stroke-width: 2; stroke: #333; fill: #fff; }
svg.railroad-diagram rect.group-box {
    stroke: #aaa; stroke-dasharray: 4 2; fill: none;
}
</style>
<g transform="translate(.5 .5)">
<g>
<path d="M20 21v20m10 -20v20m-10 -10h20" /></g><g>
<path d="M40 31h0.0" /><path d="M525.5 31h0.0" /><path d="M40.0 31h20" /><g>
<path d="M60.0 31h134.5" /><path d="M371.0 31h134.5" /><g class="non-terminal ">
<path d="M194.5 31h0.0" /><path d="M248.5 31h0.0" /><rect height="22" width="54" x="194.5" y="20"></rect><text x="221.5" y="35">Expr</text></g><path d="M248.5 31h10" /><path d="M258.5 31h10" /><g class="terminal ">
<path d="M268.5 31h0.0" /><path d="M297.0 31h0.0" /><rect height="22" rx="10" ry="10" width="28.5" x="268.5" y="20"></rect><text x="282.75" y="35">=</text></g><path d="M297.0 31h10" /><path d="M307.0 31h10" /><g class="non-terminal ">
<path d="M317.0 31h0.0" /><path d="M371.0 31h0.0" /><rect height="22" width="54" x="317" y="20"></rect><text x="344" y="35">Expr</text></g></g><path d="M505.5 31h20" /><path d="M40.0 31a10 10 0 0 1 10 10v10a10 10 0 0 0 10 10" /><g>
<path d="M60.0 61h130.25" /><path d="M375.25 61h130.25" /><g class="non-terminal ">
<path d="M190.25 61h0.0" /><path d="M244.25 61h0.0" /><rect height="22" width="54" x="190.25" y="50"></rect><text x="217.25" y="65">Expr</text></g><path d="M244.25 61h10" /><path d="M254.25 61h10" /><g class="terminal ">
<path d="M264.25 61h0.0" /><path d="M301.25 61h0.0" /><rect height="22" rx="10" ry="10" width="37" x="264.25" y="50"></rect><text x="282.75" y="65">+=</text></g><path d="M301.25 61h10" /><path d="M311.25 61h10" /><g class="non-terminal ">
<path d="M321.25 61h0.0" /><path d="M375.25 61h0.0" /><rect height="22" width="54" x="321.25" y="50"></rect><text x="348.25" y="65">Expr</text></g></g><path d="M505.5 61a10 10 0 0 0 10 -10v-10a10 10 0 0 1 10 -10" /><path d="M40.0 31a10 10 0 0 1 10 10v40a10 10 0 0 0 10 10" /><g>
<path d="M60.0 91h130.25" /><path d="M375.25 91h130.25" /><g class="non-terminal ">
<path d="M190.25 91h0.0" /><path d="M244.25 91h0.0" /><rect height="22" width="54" x="190.25" y="80"></rect><text x="217.25" y="95">Expr</text></g><path d="M244.25 91h10" /><path d="M254.25 91h10" /><g class="terminal ">
<path d="M264.25 91h0.0" /><path d="M301.25 91h0.0" /><rect height="22" rx="10" ry="10" width="37" x="264.25" y="80"></rect><text x="282.75" y="95">-=</text></g><path d="M301.25 91h10" /><path d="M311.25 91h10" /><g class="non-terminal ">
<path d="M321.25 91h0.0" /><path d="M375.25 91h0.0" /><rect height="22" width="54" x="321.25" y="80"></rect><text x="348.25" y="95">Expr</text></g></g><path d="M505.5 91a10 10 0 0 0 10 -10v-40a10 10 0 0 1 10 -10" /><path d="M40.0 31a10 10 0 0 1 10 10v79a10 10 0 0 0 10 10" /><g>
<path d="M60.0 130h0.0" /><path d="M505.5 130h0.0" /><g class="terminal ">
<path d="M60.0 130h0.0" /><path d="M105.5 130h0.0" /><rect height="22" rx="10" ry="10" width="45.5" x="60" y="119"></rect><text x="82.75" y="134">let</text></g><path d="M105.5 130h10" /><path d="M115.5 130h10" /><g class="non-terminal ">
<path d="M125.5 130h0.0" /><path d="M230.5 130h0.0" /><rect height="22" width="105" x="125.5" y="119"></rect><text x="178" y="134">Identifier</text></g><path d="M230.5 130h10" /><path d="M240.5 130h10" /><g class="terminal ">
<path d="M250.5 130h0.0" /><path d="M279.0 130h0.0" /><rect height="22" rx="10" ry="10" width="28.5" x="250.5" y="119"></rect><text x="264.75" y="134">:</text></g><path d="M279.0 130h10" /><path d="M289.0 130h10" /><g class="non-terminal ">
<path d="M299.0 130h0.0" /><path d="M353.0 130h0.0" /><rect height="22" width="54" x="299" y="119"></rect><text x="326" y="134">Type</text></g><path d="M353.0 130h10" /><g>
<path d="M363.0 130h0.0" /><path d="M505.5 130h0.0" /><path d="M363.0 130a10 10 0 0 0 10 -10v0a10 10 0 0 1 10 -10" /><g>
<path d="M383.0 110h102.5" /></g><path d="M485.5 110a10 10 0 0 1 10 10v0a10 10 0 0 0 10 10" /><path d="M363.0 130h20" /><g>
<path d="M383.0 130h0.0" /><path d="M485.5 130h0.0" /><g class="terminal ">
<path d="M383.0 130h0.0" /><path d="M411.5 130h0.0" /><rect height="22" rx="10" ry="10" width="28.5" x="383" y="119"></rect><text x="397.25" y="134">=</text></g><path d="M411.5 130h10" /><path d="M421.5 130h10" /><g class="non-terminal ">
<path d="M431.5 130h0.0" /><path d="M485.5 130h0.0" /><rect height="22" width="54" x="431.5" y="119"></rect><text x="458.5" y="134">Expr</text></g></g><path d="M485.5 130h20" /></g></g><path d="M505.5 130a10 10 0 0 0 10 -10v-79a10 10 0 0 1 10 -10" /><path d="M40.0 31a10 10 0 0 1 10 10v118a10 10 0 0 0 10 10" /><g>
<path d="M60.0 169h61.25" /><path d="M444.25 169h61.25" /><g class="terminal ">
<path d="M121.25 169h0.0" /><path d="M166.75 169h0.0" /><rect height="22" rx="10" ry="10" width="45.5" x="121.25" y="158"></rect><text x="144" y="173">let</text></g><path d="M166.75 169h10" /><path d="M176.75 169h10" /><g class="non-terminal ">
<path d="M186.75 169h0.0" /><path d="M291.75 169h0.0" /><rect height="22" width="105" x="186.75" y="158"></rect><text x="239.25" y="173">Identifier</text></g><path d="M291.75 169h10" /><g>
<path d="M301.75 169h0.0" /><path d="M444.25 169h0.0" /><path d="M301.75 169a10 10 0 0 0 10 -10v0a10 10 0 0 1 10 -10" /><g>
<path d="M321.75 149h102.5" /></g><path d="M424.25 149a10 10 0 0 1 10 10v0a10 10 0 0 0 10 10" /><path d="M301.75 169h20" /><g>
<path d="M321.75 169h0.0" /><path d="M424.25 169h0.0" /><g class="terminal ">
<path d="M321.75 169h0.0" /><path d="M350.25 169h0.0" /><rect height="22" rx="10" ry="10" width="28.5" x="321.75" y="158"></rect><text x="336" y="173">=</text></g><path d="M350.25 169h10" /><path d="M360.25 169h10" /><g class="non-terminal ">
<path d="M370.25 169h0.0" /><path d="M424.25 169h0.0" /><rect height="22" width="54" x="370.25" y="158"></rect><text x="397.25" y="173">Expr</text></g></g><path d="M424.25 169h20" /></g></g><path d="M505.5 169a10 10 0 0 0 10 -10v-118a10 10 0 0 1 10 -10" /><path d="M40.0 31a10 10 0 0 1 10 10v148a10 10 0 0 0 10 10" /><g class="non-terminal ">
<path d="M60.0 199h195.75" /><path d="M309.75 199h195.75" /><rect height="22" width="54" x="255.75" y="188"></rect><text x="282.75" y="203">Expr</text></g><path d="M505.5 199a10 10 0 0 0 10 -10v-148a10 10 0 0 1 10 -10" /></g><path d="M 525.5 31 h 20 m -10 -10 v 20 m 10 -20 v 20"></path></g></svg>