<svg xmlns="http://www.w3.org/2000/svg" class="railroad-diagram" height="131" viewBox="0 0 1036.0 131" width="1036.0">
<style>
svg.railroad-diagram { background: #fafafa; }
svg.railroad-diagram path { stroke-width: 2; stroke: #333; fill: none; }
svg.railroad-diagram text {
    font: bold 14px monospace; fill: #333;
    text-anchor: middle;
}
svg.railroad-diagram text.comment { font: italic 12px monospace; fill: #888; }
svg.railroad-diagram rect { stroke-width: 2; stroke: #333; fill: #fff; }
svg.railroad-diagram rect.group-box {
    stroke: #aaa; stroke-dasharray: 4 2; fill: none;
}
</style>
<g transform="translate(.5 .5)">
<g>
<path d="M20 21v20m10 -20v20m-10 -10h20" /></g><g>
<path d="M40 31h0.0" /><path d="M996.0 31h0.0" /><path d="M40.0 31h20" /><g>
<path d="M60.0 31h335.75" /><path d="M640.25 31h335.75" /><g class="terminal ">
<path d="M395.75 31h0.0" /><path d="M466.75 31h0.0" /><rect height="22" rx="10" ry="10" width="71" x="395.75" y="20"></rect><text x="431.25" y="35">import</text></g><path d="M466.75 31h10" /><path d="M476.75 31h10" /><g class="non-terminal ">
<path d="M486.75 31h0.0" /><path d="M591.75 31h0.0" /><rect height="22" width="105" x="486.75" y="20"></rect><text x="539.25" y="35">ModulePath</text></g><path d="M591.75 31h10" /><path d="M601.75 31h10" /><g class="terminal ">
<path d="M611.75 31h0.0" /><path d="M640.25 31h0.0" /><rect height="22" rx="10" ry="10" width="28.5" x="611.75" y="20"></rect><text x="626" y="35">;</text></g></g><path d="M976.0 31h20" /><path d="M40.0 31a10 10 0 0 1 10 10v10a10 10 0 0 0 10 10" /><g>
<path d="M60.0 61h183.5" /><path d="M792.5 61h183.5" /><g class="terminal ">
<path d="M243.5 61h0.0" /><path d="M314.5 61h0.0" /><rect height="22" rx="10" ry="10" width="71" x="243.5" y="50"></rect><text x="279" y="65">import</text></g><path d="M314.5 61h10" /><path d="M324.5 61h10" /><g class="terminal ">
<path d="M334.5 61h0.0" /><path d="M363.0 61h0.0" /><rect height="22" rx="10" ry="10" width="28.5" x="334.5" y="50"></rect><text x="348.75" y="65">*</text></g><path d="M363.0 61h10" /><path d="M373.0 61h10" /><g class="terminal ">
<path d="M383.0 61h0.0" /><path d="M420.0 61h0.0" /><rect height="22" rx="10" ry="10" width="37" x="383" y="50"></rect><text x="401.5" y="65">as</text></g><path d="M420.0 61h10" /><path d="M430.0 61h10" /><g class="non-terminal ">
<path d="M440.0 61h0.0" /><path d="M545.0 61h0.0" /><rect height="22" width="105" x="440" y="50"></rect><text x="492.5" y="65">Identifier</text></g><path d="M545.0 61h10" /><path d="M555.0 61h10" /><g class="terminal ">
<path d="M565.0 61h0.0" /><path d="M619.0 61h0.0" /><rect height="22" rx="10" ry="10" width="54" x="565" y="50"></rect><text x="592" y="65">from</text></g><path d="M619.0 61h10" /><path d="M629.0 61h10" /><g class="non-terminal ">
<path d="M639.0 61h0.0" /><path d="M744.0 61h0.0" /><rect height="22" width="105" x="639" y="50"></rect><text x="691.5" y="65">ModulePath</text></g><path d="M744.0 61h10" /><path d="M754.0 61h10" /><g class="terminal ">
<path d="M764.0 61h0.0" /><path d="M792.5 61h0.0" /><rect height="22" rx="10" ry="10" width="28.5" x="764" y="50"></rect><text x="778.25" y="65">;</text></g></g><path d="M976.0 61a10 10 0 0 0 10 -10v-10a10 10 0 0 1 10 -10" /><path d="M40.0 31a10 10 0 0 1 10 10v49a10 10 0 0 0 10 10" /><g>
<path d="M60.0 100h0.0" /><path d="M976.0 100h0.0" /><g class="terminal ">
<path d="M60.0 100h0.0" /><path d="M131.0 100h0.0" /><rect height="22" rx="10" ry="10" width="71" x="60" y="89"></rect><text x="95.5" y="104">import</text></g><path d="M131.0 100h10" /><path d="M141.0 100h10" /><g class="terminal ">
<path d="M151.0 100h0.0" /><path d="M179.5 100h0.0" /><rect height="22" rx="10" ry="10" width="28.5" x="151" y="89"></rect><text x="165.25" y="104">{</text></g><path d="M179.5 100h10" /><path d="M189.5 100h10" /><g class="non-terminal ">
<path d="M199.5 100h0.0" /><path d="M313.0 100h0.0" /><rect height="22" width="113.5" x="199.5" y="89"></rect><text x="256.25" y="104">ImportItems</text></g><path d="M313.0 100h10" /><path d="M323.0 100h10" /><g class="terminal ">
<path d="M333.0 100h0.0" /><path d="M361.5 100h0.0" /><rect height="22" rx="10" ry="10" width="28.5" x="333" y="89"></rect><text x="347.25" y="104">}</text></g><path d="M361.5 100h10" /><path d="M371.5 100h10" /><g class="terminal ">
<path d="M381.5 100h0.0" /><path d="M435.5 100h0.0" /><rect height="22" rx="10" ry="10" width="54" x="381.5" y="89"></rect><text x="408.5" y="104">from</text></g><path d="M435.5 100h10" /><path d="M445.5 100h10" /><g class="non-terminal ">
<path d="M455.5 100h0.0" /><path d="M560.5 100h0.0" /><rect height="22" width="105" x="455.5" y="89"></rect><text x="508" y="104">ModulePath</text></g><path d="M560.5 100h10" /><g>
<path d="M570.5 100h0.0" /><path d="M937.5 100h0.0" /><path d="M570.5 100a10 10 0 0 0 10 -10v0a10 10 0 0 1 10 -10" /><g>
<path d="M590.5 80h327.0" /></g><path d="M917.5 80a10 10 0 0 1 10 10v0a10 10 0 0 0 10 10" /><path d="M570.5 100h20" /><g>
<path d="M590.5 100h0.0" /><path d="M917.5 100h0.0" /><g class="terminal ">
<path d="M590.5 100h0.0" /><path d="M661.5 100h0.0" /><rect height="22" rx="10" ry="10" width="71" x="590.5" y="89"></rect><text x="626" y="104">hiding</text></g><path d="M661.5 100h10" /><path d="M671.5 100h10" /><g class="terminal ">
<path d="M681.5 100h0.0" /><path d="M710.0 100h0.0" /><rect height="22" rx="10" ry="10" width="28.5" x="681.5" y="89"></rect><text x="695.75" y="104">{</text></g><path d="M710.0 100h10" /><path d="M720.0 100h10" /><g class="non-terminal ">
<path d="M730.0 100h0.0" /><path d="M869.0 100h0.0" /><rect height="22" width="139" x="730" y="89"></rect><text x="799.5" y="104">IdentifierList</text></g><path d="M869.0 100h10" /><path d="M879.0 100h10" /><g class="terminal ">
<path d="M889.0 100h0.0" /><path d="M917.5 100h0.0" /><rect height="22" rx="10" ry="10" width="28.5" x="889" y="89"></rect><text x="903.25" y="104">}</text></g></g><path d="M917.5 100h20" /></g><path d="M937.5 100h10" /><g class="terminal ">
<path d="M947.5 100h0.0" /><path d="M976.0 100h0.0" /><rect height="22" rx="10" ry="10" width="28.5" x="947.5" y="89"></rect><text x="961.75" y="104">;</text></g></g><path d="M976.0 100a10 10 0 0 0 10 -10v-49a10 10 0 0 1 10 -10" /></g><path d="M 996.0 31 h 20 m -10 -10 v 20 m 10 -20 v 20"></path></g></svg>