<svg xmlns="http://www.w3.org/2000/svg" class="railroad-diagram" height="152" viewBox="0 0 407.0 152" width="407.0">
<style>
svg.railroad-diagram { background: #fafafa; }
svg.railroad-diagram path { stroke-width: 2; stroke: #333; fill: none; }
svg.railroad-diagram text {
    font: bold 14px monospace; fill: #333;
    text-anchor: middle;
}
svg.railroad-diagram text.comment { font: italic 12px monospace; fill: #888; }
svg.railroad-diagram rect { stroke-width: 2; stroke: #333; fill: #fff; }
svg.railroad-diagram rect.group-box {
    stroke: #aaa; stroke-dasharray: 4 2; fill: none;
}
</style>
<g transform="translate(.5 .5)">
<g>
<path d="M20 21v20m10 -20v20m-10 -10h20" /></g><g>
<path d="M40 31h0.0" /><path d="M367.0 31h0.0" /><path d="M40.0 31h20" /><g class="terminal ">
<path d="M60.0 31h129.25" /><path d="M217.75 31h129.25" /><rect height="22" rx="10" ry="10" width="28.5" x="189.25" y="20"></rect><text x="203.5" y="35">*</text></g><path d="M347.0 31h20" /><path d="M40.0 31a10 10 0 0 1 10 10v10a10 10 0 0 0 10 10" /><g class="non-terminal ">
<path d="M60.0 61h91.0" /><path d="M256.0 61h91.0" /><rect height="22" width="105" x="151" y="50"></rect><text x="203.5" y="65">Identifier</text></g><path d="M347.0 61a10 10 0 0 0 10 -10v-10a10 10 0 0 1 10 -10" /><path d="M40.0 31a10 10 0 0 1 10 10v40a10 10 0 0 0 10 10" /><g>
<path d="M60.0 91h0.0" /><path d="M347.0 91h0.0" /><g class="non-terminal ">
<path d="M60.0 91h0.0" /><path d="M165.0 91h0.0" /><rect height="22" width="105" x="60" y="80"></rect><text x="112.5" y="95">Identifier</text></g><path d="M165.0 91h10" /><path d="M175.0 91h10" /><g class="terminal ">
<path d="M185.0 91h0.0" /><path d="M222.0 91h0.0" /><rect height="22" rx="10" ry="10" width="37" x="185" y="80"></rect><text x="203.5" y="95">as</text></g><path d="M222.0 91h10" /><path d="M232.0 91h10" /><g class="non-terminal ">
<path d="M242.0 91h0.0" /><path d="M347.0 91h0.0" /><rect height="22" width="105" x="242" y="80"></rect><text x="294.5" y="95">Identifier</text></g></g><path d="M347.0 91a10 10 0 0 0 10 -10v-40a10 10 0 0 1 10 -10" /><path d="M40.0 31a10 10 0 0 1 10 10v70a10 10 0 0 0 10 10" /><g>
<path d="M60.0 121h25.5" /><path d="M321.5 121h25.5" /><g class="terminal ">
<path d="M85.5 121h0.0" /><path d="M114.0 121h0.0" /><rect height="22" rx="10" ry="10" width="28.5" x="85.5" y="110"></rect><text x="99.75" y="125">(</text></g><path d="M114.0 121h10" /><path d="M124.0 121h10" /><g class="non-terminal ">
<path d="M134.0 121h0.0" /><path d="M273.0 121h0.0" /><rect height="22" width="139" x="134" y="110"></rect><text x="203.5" y="125">OperatorSymbol</text></g><path d="M273.0 121h10" /><path d="M283.0 121h10" /><g class="terminal ">
<path d="M293.0 121h0.0" /><path d="M321.5 121h0.0" /><rect height="22" rx="10" ry="10" width="28.5" x="293" y="110"></rect><text x="307.25" y="125">)</text></g></g><path d="M347.0 121a10 10 0 0 0 10 -10v-70a10 10 0 0 1 10 -10" /></g><path d="M 367.0 31 h 20 m -10 -10 v 20 m 10 -20 v 20"></path></g></svg>