<svg xmlns="http://www.w3.org/2000/svg" class="railroad-diagram" height="80" viewBox="0 0 312.0 80" width="312.0">
<style>
svg.railroad-diagram { background: #fafafa; }
svg.railroad-diagram path { stroke-width: 2; stroke: #333; fill: none; }
svg.railroad-diagram text {
    font: bold 14px monospace; fill: #333;
    text-anchor: middle;
}
svg.railroad-diagram text.comment { font: italic 12px monospace; fill: #888; }
svg.railroad-diagram rect { stroke-width: 2; stroke: #333; fill: #fff; }
svg.railroad-diagram rect.group-box {
    stroke: #aaa; stroke-dasharray: 4 2; fill: none;
}
</style>
<g transform="translate(.5 .5)">
<g>
<path d="M20 30v20m10 -20v20m-10 -10h20" /></g><path d="M40 40h10" /><g>
<path d="M50 40h0.0" /><path d="M262.0 40h0.0" /><g class="non-terminal ">
<path d="M50.0 40h0.0" /><path d="M121.0 40h0.0" /><rect height="22" width="71" x="50" y="29"></rect><text x="85.5" y="44">opChar</text></g><path d="M121.0 40h10" /><g>
<path d="M131.0 40h0.0" /><path d="M262.0 40h0.0" /><path d="M131.0 40a10 10 0 0 0 10 -10v0a10 10 0 0 1 10 -10" /><g>
<path d="M151.0 20h91.0" /></g><path d="M242.0 20a10 10 0 0 1 10 10v0a10 10 0 0 0 10 10" /><path d="M131.0 40h20" /><g>
<path d="M151.0 40h0.0" /><path d="M242.0 40h0.0" /><path d="M151.0 40h10" /><g class="non-terminal ">
<path d="M161.0 40h0.0" /><path d="M232.0 40h0.0" /><rect height="22" width="71" x="161" y="29"></rect><text x="196.5" y="44">opChar</text></g><path d="M232.0 40h10" /><path d="M161.0 40a10 10 0 0 0 -10 10v0a10 10 0 0 0 10 10" /><g>
<path d="M161.0 60h71.0" /></g><path d="M232.0 60a10 10 0 0 0 10 -10v0a10 10 0 0 0 -10 -10" /></g><path d="M242.0 40h20" /></g></g><path d="M262.0 40h10" /><path d="M 272.0 40 h 20 m -10 -10 v 20 m 10 -20 v 20"></path></g></svg>