<svg xmlns="http://www.w3.org/2000/svg" class="railroad-diagram" height="131" viewBox="0 0 325.0 131" width="325.0">
<style>
svg.railroad-diagram { background: #fafafa; }
svg.railroad-diagram path { stroke-width: 2; stroke: #333; fill: none; }
svg.railroad-diagram text {
    font: bold 14px monospace; fill: #333;
    text-anchor: middle;
}
svg.railroad-diagram text.comment { font: italic 12px monospace; fill: #888; }
svg.railroad-diagram rect { stroke-width: 2; stroke: #333; fill: #fff; }
svg.railroad-diagram rect.group-box {
    stroke: #aaa; stroke-dasharray: 4 2; fill: none;
}
</style>
<g transform="translate(.5 .5)">
<g>
<path d="M20 30v20m10 -20v20m-10 -10h20" /></g><g>
<path d="M40 40h0.0" /><path d="M285.0 40h0.0" /><path d="M40.0 40h20" /><g>
<path d="M60.0 40h0.0" /><path d="M265.0 40h0.0" /><g class="terminal ">
<path d="M60.0 40h0.0" /><path d="M88.5 40h0.0" /><rect height="22" rx="10" ry="10" width="28.5" x="60" y="29"></rect><text x="74.25" y="44">(</text></g><path d="M88.5 40h10" /><g>
<path d="M98.5 40h0.0" /><path d="M226.5 40h0.0" /><path d="M98.5 40a10 10 0 0 0 10 -10v0a10 10 0 0 1 10 -10" /><g>
<path d="M118.5 20h88.0" /></g><path d="M206.5 20a10 10 0 0 1 10 10v0a10 10 0 0 0 10 10" /><path d="M98.5 40h20" /><g class="non-terminal ">
<path d="M118.5 40h0.0" /><path d="M206.5 40h0.0" /><rect height="22" width="88" x="118.5" y="29"></rect><text x="162.5" y="44">ExprList</text></g><path d="M206.5 40h20" /></g><path d="M226.5 40h10" /><g class="terminal ">
<path d="M236.5 40h0.0" /><path d="M265.0 40h0.0" /><rect height="22" rx="10" ry="10" width="28.5" x="236.5" y="29"></rect><text x="250.75" y="44">)</text></g></g><path d="M265.0 40h20" /><path d="M40.0 40a10 10 0 0 1 10 10v10a10 10 0 0 0 10 10" /><g>
<path d="M60.0 70h25.75" /><path d="M239.25 70h25.75" /><g class="terminal ">
<path d="M85.75 70h0.0" /><path d="M114.25 70h0.0" /><rect height="22" rx="10" ry="10" width="28.5" x="85.75" y="59"></rect><text x="100" y="74">.</text></g><path d="M114.25 70h10" /><path d="M124.25 70h10" /><g class="non-terminal ">
<path d="M134.25 70h0.0" /><path d="M239.25 70h0.0" /><rect height="22" width="105" x="134.25" y="59"></rect><text x="186.75" y="74">Identifier</text></g></g><path d="M265.0 70a10 10 0 0 0 10 -10v-10a10 10 0 0 1 10 -10" /><path d="M40.0 40a10 10 0 0 1 10 10v40a10 10 0 0 0 10 10" /><g>
<path d="M60.0 100h27.0" /><path d="M238.0 100h27.0" /><g class="terminal ">
<path d="M87.0 100h0.0" /><path d="M115.5 100h0.0" /><rect height="22" rx="10" ry="10" width="28.5" x="87" y="89"></rect><text x="101.25" y="104">[</text></g><path d="M115.5 100h10" /><path d="M125.5 100h10" /><g class="non-terminal ">
<path d="M135.5 100h0.0" /><path d="M189.5 100h0.0" /><rect height="22" width="54" x="135.5" y="89"></rect><text x="162.5" y="104">Expr</text></g><path d="M189.5 100h10" /><path d="M199.5 100h10" /><g class="terminal ">
<path d="M209.5 100h0.0" /><path d="M238.0 100h0.0" /><rect height="22" rx="10" ry="10" width="28.5" x="209.5" y="89"></rect><text x="223.75" y="104">]</text></g></g><path d="M265.0 100a10 10 0 0 0 10 -10v-40a10 10 0 0 1 10 -10" /></g><path d="M 285.0 40 h 20 m -10 -10 v 20 m 10 -20 v 20"></path></g></svg>