<svg xmlns="http://www.w3.org/2000/svg" class="railroad-diagram" height="131" viewBox="0 0 660.0 131" width="660.0">
<style>
svg.railroad-diagram { background: #fafafa; }
svg.railroad-diagram path { stroke-width: 2; stroke: #333; fill: none; }
svg.railroad-diagram text {
    font: bold 14px monospace; fill: #333;
    text-anchor: middle;
}
svg.railroad-diagram text.comment { font: italic 12px monospace; fill: #888; }
svg.railroad-diagram rect { stroke-width: 2; stroke: #333; fill: #fff; }
svg.railroad-diagram rect.group-box {
    stroke: #aaa; stroke-dasharray: 4 2; fill: none;
}
</style>
<g transform="translate(.5 .5)">
<g>
<path d="M20 21v20m10 -20v20m-10 -10h20" /></g><g>
<path d="M40 31h0.0" /><path d="M620.0 31h0.0" /><path d="M40.0 31h20" /><g>
<path d="M60.0 31h89.5" /><path d="M510.5 31h89.5" /><g class="terminal ">
<path d="M149.5 31h0.0" /><path d="M220.5 31h0.0" /><rect height="22" rx="10" ry="10" width="71" x="149.5" y="20"></rect><text x="185" y="35">pragma</text></g><path d="M220.5 31h10" /><path d="M230.5 31h10" /><g class="terminal ">
<path d="M240.5 31h0.0" /><path d="M328.5 31h0.0" /><rect height="22" rx="10" ry="10" width="88" x="240.5" y="20"></rect><text x="284.5" y="35">solidity</text></g><path d="M328.5 31h10" /><path d="M338.5 31h10" /><g class="non-terminal ">
<path d="M348.5 31h0.0" /><path d="M462.0 31h0.0" /><rect height="22" width="113.5" x="348.5" y="20"></rect><text x="405.25" y="35">PragmaValue</text></g><path d="M462.0 31h10" /><path d="M472.0 31h10" /><g class="terminal ">
<path d="M482.0 31h0.0" /><path d="M510.5 31h0.0" /><rect height="22" rx="10" ry="10" width="28.5" x="482" y="20"></rect><text x="496.25" y="35">;</text></g></g><path d="M600.0 31h20" /><path d="M40.0 31a10 10 0 0 1 10 10v10a10 10 0 0 0 10 10" /><g>
<path d="M60.0 61h89.5" /><path d="M510.5 61h89.5" /><g class="terminal ">
<path d="M149.5 61h0.0" /><path d="M220.5 61h0.0" /><rect height="22" rx="10" ry="10" width="71" x="149.5" y="50"></rect><text x="185" y="65">pragma</text></g><path d="M220.5 61h10" /><path d="M230.5 61h10" /><g class="terminal ">
<path d="M240.5 61h0.0" /><path d="M328.5 61h0.0" /><rect height="22" rx="10" ry="10" width="88" x="240.5" y="50"></rect><text x="284.5" y="65">abicoder</text></g><path d="M328.5 61h10" /><path d="M338.5 61h10" /><g class="non-terminal ">
<path d="M348.5 61h0.0" /><path d="M462.0 61h0.0" /><rect height="22" width="113.5" x="348.5" y="50"></rect><text x="405.25" y="65">PragmaValue</text></g><path d="M462.0 61h10" /><path d="M472.0 61h10" /><g class="terminal ">
<path d="M482.0 61h0.0" /><path d="M510.5 61h0.0" /><rect height="22" rx="10" ry="10" width="28.5" x="482" y="50"></rect><text x="496.25" y="65">;</text></g></g><path d="M600.0 61a10 10 0 0 0 10 -10v-10a10 10 0 0 1 10 -10" /><path d="M40.0 31a10 10 0 0 1 10 10v49a10 10 0 0 0 10 10" /><g>
<path d="M60.0 100h0.0" /><path d="M600.0 100h0.0" /><g class="terminal ">
<path d="M60.0 100h0.0" /><path d="M131.0 100h0.0" /><rect height="22" rx="10" ry="10" width="71" x="60" y="89"></rect><text x="95.5" y="104">pragma</text></g><path d="M131.0 100h10" /><path d="M141.0 100h10" /><g class="terminal ">
<path d="M151.0 100h0.0" /><path d="M230.5 100h0.0" /><rect height="22" rx="10" ry="10" width="79.5" x="151" y="89"></rect><text x="190.75" y="104">solcore</text></g><path d="M230.5 100h10" /><path d="M240.5 100h10" /><g class="non-terminal ">
<path d="M250.5 100h0.0" /><path d="M381.0 100h0.0" /><rect height="22" width="130.5" x="250.5" y="89"></rect><text x="315.75" y="104">SolcorePragma</text></g><path d="M381.0 100h10" /><g>
<path d="M391.0 100h0.0" /><path d="M561.5 100h0.0" /><path d="M391.0 100a10 10 0 0 0 10 -10v0a10 10 0 0 1 10 -10" /><g>
<path d="M411.0 80h130.5" /></g><path d="M541.5 80a10 10 0 0 1 10 10v0a10 10 0 0 0 10 10" /><path d="M391.0 100h20" /><g class="non-terminal ">
<path d="M411.0 100h0.0" /><path d="M541.5 100h0.0" /><rect height="22" width="130.5" x="411" y="89"></rect><text x="476.25" y="104">PragmaTargets</text></g><path d="M541.5 100h20" /></g><path d="M561.5 100h10" /><g class="terminal ">
<path d="M571.5 100h0.0" /><path d="M600.0 100h0.0" /><rect height="22" rx="10" ry="10" width="28.5" x="571.5" y="89"></rect><text x="585.75" y="104">;</text></g></g><path d="M600.0 100a10 10 0 0 0 10 -10v-49a10 10 0 0 1 10 -10" /></g><path d="M 620.0 31 h 20 m -10 -10 v 20 m 10 -20 v 20"></path></g></svg>