<svg xmlns="http://www.w3.org/2000/svg" class="railroad-diagram" height="407" viewBox="0 0 774.5 407" width="774.5">
<style>
svg.railroad-diagram { background: #fafafa; }
svg.railroad-diagram path { stroke-width: 2; stroke: #333; fill: none; }
svg.railroad-diagram text {
    font: bold 14px monospace; fill: #333;
    text-anchor: middle;
}
svg.railroad-diagram text.comment { font: italic 12px monospace; fill: #888; }
svg.railroad-diagram rect { stroke-width: 2; stroke: #333; fill: #fff; }
svg.railroad-diagram rect.group-box {
    stroke: #aaa; stroke-dasharray: 4 2; fill: none;
}
</style>
<g transform="translate(.5 .5)">
<g>
<path d="M20 21v20m10 -20v20m-10 -10h20" /></g><g>
<path d="M40 31h0.0" /><path d="M734.5 31h0.0" /><path d="M40.0 31h20" /><g>
<path d="M60.0 31h214.75" /><path d="M499.75 31h214.75" /><g class="non-terminal ">
<path d="M274.75 31h0.0" /><path d="M328.75 31h0.0" /><rect height="22" width="54" x="274.75" y="20"></rect><text x="301.75" y="35">Expr</text></g><path d="M328.75 31h10" /><path d="M338.75 31h10" /><g class="terminal ">
<path d="M348.75 31h0.0" /><path d="M377.25 31h0.0" /><rect height="22" rx="10" ry="10" width="28.5" x="348.75" y="20"></rect><text x="363" y="35">=</text></g><path d="M377.25 31h10" /><path d="M387.25 31h10" /><g class="non-terminal ">
<path d="M397.25 31h0.0" /><path d="M451.25 31h0.0" /><rect height="22" width="54" x="397.25" y="20"></rect><text x="424.25" y="35">Expr</text></g><path d="M451.25 31h10" /><path d="M461.25 31h10" /><g class="terminal ">
<path d="M471.25 31h0.0" /><path d="M499.75 31h0.0" /><rect height="22" rx="10" ry="10" width="28.5" x="471.25" y="20"></rect><text x="485.5" y="35">;</text></g></g><path d="M714.5 31h20" /><path d="M40.0 31a10 10 0 0 1 10 10v10a10 10 0 0 0 10 10" /><g>
<path d="M60.0 61h210.5" /><path d="M504.0 61h210.5" /><g class="non-terminal ">
<path d="M270.5 61h0.0" /><path d="M324.5 61h0.0" /><rect height="22" width="54" x="270.5" y="50"></rect><text x="297.5" y="65">Expr</text></g><path d="M324.5 61h10" /><path d="M334.5 61h10" /><g class="terminal ">
<path d="M344.5 61h0.0" /><path d="M381.5 61h0.0" /><rect height="22" rx="10" ry="10" width="37" x="344.5" y="50"></rect><text x="363" y="65">+=</text></g><path d="M381.5 61h10" /><path d="M391.5 61h10" /><g class="non-terminal ">
<path d="M401.5 61h0.0" /><path d="M455.5 61h0.0" /><rect height="22" width="54" x="401.5" y="50"></rect><text x="428.5" y="65">Expr</text></g><path d="M455.5 61h10" /><path d="M465.5 61h10" /><g class="terminal ">
<path d="M475.5 61h0.0" /><path d="M504.0 61h0.0" /><rect height="22" rx="10" ry="10" width="28.5" x="475.5" y="50"></rect><text x="489.75" y="65">;</text></g></g><path d="M714.5 61a10 10 0 0 0 10 -10v-10a10 10 0 0 1 10 -10" /><path d="M40.0 31a10 10 0 0 1 10 10v40a10 10 0 0 0 10 10" /><g>
<path d="M60.0 91h210.5" /><path d="M504.0 91h210.5" /><g class="non-terminal ">
<path d="M270.5 91h0.0" /><path d="M324.5 91h0.0" /><rect height="22" width="54" x="270.5" y="80"></rect><text x="297.5" y="95">Expr</text></g><path d="M324.5 91h10" /><path d="M334.5 91h10" /><g class="terminal ">
<path d="M344.5 91h0.0" /><path d="M381.5 91h0.0" /><rect height="22" rx="10" ry="10" width="37" x="344.5" y="80"></rect><text x="363" y="95">-=</text></g><path d="M381.5 91h10" /><path d="M391.5 91h10" /><g class="non-terminal ">
<path d="M401.5 91h0.0" /><path d="M455.5 91h0.0" /><rect height="22" width="54" x="401.5" y="80"></rect><text x="428.5" y="95">Expr</text></g><path d="M455.5 91h10" /><path d="M465.5 91h10" /><g class="terminal ">
<path d="M475.5 91h0.0" /><path d="M504.0 91h0.0" /><rect height="22" rx="10" ry="10" width="28.5" x="475.5" y="80"></rect><text x="489.75" y="95">;</text></g></g><path d="M714.5 91a10 10 0 0 0 10 -10v-40a10 10 0 0 1 10 -10" /><path d="M40.0 31a10 10 0 0 1 10 10v79a10 10 0 0 0 10 10" /><g>
<path d="M60.0 130h85.25" /><path d="M629.25 130h85.25" /><g class="terminal ">
<path d="M145.25 130h0.0" /><path d="M190.75 130h0.0" /><rect height="22" rx="10" ry="10" width="45.5" x="145.25" y="119"></rect><text x="168" y="134">let</text></g><path d="M190.75 130h10" /><path d="M200.75 130h10" /><g class="non-terminal ">
<path d="M210.75 130h0.0" /><path d="M315.75 130h0.0" /><rect height="22" width="105" x="210.75" y="119"></rect><text x="263.25" y="134">Identifier</text></g><path d="M315.75 130h10" /><path d="M325.75 130h10" /><g class="terminal ">
<path d="M335.75 130h0.0" /><path d="M364.25 130h0.0" /><rect height="22" rx="10" ry="10" width="28.5" x="335.75" y="119"></rect><text x="350" y="134">:</text></g><path d="M364.25 130h10" /><path d="M374.25 130h10" /><g class="non-terminal ">
<path d="M384.25 130h0.0" /><path d="M438.25 130h0.0" /><rect height="22" width="54" x="384.25" y="119"></rect><text x="411.25" y="134">Type</text></g><path d="M438.25 130h10" /><g>
<path d="M448.25 130h0.0" /><path d="M590.75 130h0.0" /><path d="M448.25 130a10 10 0 0 0 10 -10v0a10 10 0 0 1 10 -10" /><g>
<path d="M468.25 110h102.5" /></g><path d="M570.75 110a10 10 0 0 1 10 10v0a10 10 0 0 0 10 10" /><path d="M448.25 130h20" /><g>
<path d="M468.25 130h0.0" /><path d="M570.75 130h0.0" /><g class="terminal ">
<path d="M468.25 130h0.0" /><path d="M496.75 130h0.0" /><rect height="22" rx="10" ry="10" width="28.5" x="468.25" y="119"></rect><text x="482.5" y="134">=</text></g><path d="M496.75 130h10" /><path d="M506.75 130h10" /><g class="non-terminal ">
<path d="M516.75 130h0.0" /><path d="M570.75 130h0.0" /><rect height="22" width="54" x="516.75" y="119"></rect><text x="543.75" y="134">Expr</text></g></g><path d="M570.75 130h20" /></g><path d="M590.75 130h10" /><g class="terminal ">
<path d="M600.75 130h0.0" /><path d="M629.25 130h0.0" /><rect height="22" rx="10" ry="10" width="28.5" x="600.75" y="119"></rect><text x="615" y="134">;</text></g></g><path d="M714.5 130a10 10 0 0 0 10 -10v-79a10 10 0 0 1 10 -10" /><path d="M40.0 31a10 10 0 0 1 10 10v118a10 10 0 0 0 10 10" /><g>
<path d="M60.0 169h146.5" /><path d="M568.0 169h146.5" /><g class="terminal ">
<path d="M206.5 169h0.0" /><path d="M252.0 169h0.0" /><rect height="22" rx="10" ry="10" width="45.5" x="206.5" y="158"></rect><text x="229.25" y="173">let</text></g><path d="M252.0 169h10" /><path d="M262.0 169h10" /><g class="non-terminal ">
<path d="M272.0 169h0.0" /><path d="M377.0 169h0.0" /><rect height="22" width="105" x="272" y="158"></rect><text x="324.5" y="173">Identifier</text></g><path d="M377.0 169h10" /><g>
<path d="M387.0 169h0.0" /><path d="M529.5 169h0.0" /><path d="M387.0 169a10 10 0 0 0 10 -10v0a10 10 0 0 1 10 -10" /><g>
<path d="M407.0 149h102.5" /></g><path d="M509.5 149a10 10 0 0 1 10 10v0a10 10 0 0 0 10 10" /><path d="M387.0 169h20" /><g>
<path d="M407.0 169h0.0" /><path d="M509.5 169h0.0" /><g class="terminal ">
<path d="M407.0 169h0.0" /><path d="M435.5 169h0.0" /><rect height="22" rx="10" ry="10" width="28.5" x="407" y="158"></rect><text x="421.25" y="173">=</text></g><path d="M435.5 169h10" /><path d="M445.5 169h10" /><g class="non-terminal ">
<path d="M455.5 169h0.0" /><path d="M509.5 169h0.0" /><rect height="22" width="54" x="455.5" y="158"></rect><text x="482.5" y="173">Expr</text></g></g><path d="M509.5 169h20" /></g><path d="M529.5 169h10" /><g class="terminal ">
<path d="M539.5 169h0.0" /><path d="M568.0 169h0.0" /><rect height="22" rx="10" ry="10" width="28.5" x="539.5" y="158"></rect><text x="553.75" y="173">;</text></g></g><path d="M714.5 169a10 10 0 0 0 10 -10v-118a10 10 0 0 1 10 -10" /><path d="M40.0 31a10 10 0 0 1 10 10v148a10 10 0 0 0 10 10" /><g>
<path d="M60.0 199h276.0" /><path d="M438.5 199h276.0" /><g class="non-terminal ">
<path d="M336.0 199h0.0" /><path d="M390.0 199h0.0" /><rect height="22" width="54" x="336" y="188"></rect><text x="363" y="203">Expr</text></g><path d="M390.0 199h10" /><path d="M400.0 199h10" /><g class="terminal ">
<path d="M410.0 199h0.0" /><path d="M438.5 199h0.0" /><rect height="22" rx="10" ry="10" width="28.5" x="410" y="188"></rect><text x="424.25" y="203">;</text></g></g><path d="M714.5 199a10 10 0 0 0 10 -10v-148a10 10 0 0 1 10 -10" /><path d="M40.0 31a10 10 0 0 1 10 10v178a10 10 0 0 0 10 10" /><g>
<path d="M60.0 229h230.5" /><path d="M484.0 229h230.5" /><g class="terminal ">
<path d="M290.5 229h0.0" /><path d="M361.5 229h0.0" /><rect height="22" rx="10" ry="10" width="71" x="290.5" y="218"></rect><text x="326" y="233">return</text></g><path d="M361.5 229h10" /><path d="M371.5 229h10" /><g class="non-terminal ">
<path d="M381.5 229h0.0" /><path d="M435.5 229h0.0" /><rect height="22" width="54" x="381.5" y="218"></rect><text x="408.5" y="233">Expr</text></g><path d="M435.5 229h10" /><path d="M445.5 229h10" /><g class="terminal ">
<path d="M455.5 229h0.0" /><path d="M484.0 229h0.0" /><rect height="22" rx="10" ry="10" width="28.5" x="455.5" y="218"></rect><text x="469.75" y="233">;</text></g></g><path d="M714.5 229a10 10 0 0 0 10 -10v-178a10 10 0 0 1 10 -10" /><path d="M40.0 31a10 10 0 0 1 10 10v217a10 10 0 0 0 10 10" /><g>
<path d="M60.0 268h115.25" /><path d="M599.25 268h115.25" /><g class="terminal ">
<path d="M175.25 268h0.0" /><path d="M237.75 268h0.0" /><rect height="22" rx="10" ry="10" width="62.5" x="175.25" y="257"></rect><text x="206.5" y="272">match</text></g><path d="M237.75 268h10" /><path d="M247.75 268h10" /><g class="non-terminal ">
<path d="M257.75 268h0.0" /><path d="M354.25 268h0.0" /><rect height="22" width="96.5" x="257.75" y="257"></rect><text x="306" y="272">MatchArgs</text></g><path d="M354.25 268h10" /><path d="M364.25 268h10" /><g class="terminal ">
<path d="M374.25 268h0.0" /><path d="M402.75 268h0.0" /><rect height="22" rx="10" ry="10" width="28.5" x="374.25" y="257"></rect><text x="388.5" y="272">{</text></g><path d="M402.75 268h10" /><g>
<path d="M412.75 268h0.0" /><path d="M560.75 268h0.0" /><path d="M412.75 268a10 10 0 0 0 10 -10v0a10 10 0 0 1 10 -10" /><g>
<path d="M432.75 248h108.0" /></g><path d="M540.75 248a10 10 0 0 1 10 10v0a10 10 0 0 0 10 10" /><path d="M412.75 268h20" /><g>
<path d="M432.75 268h0.0" /><path d="M540.75 268h0.0" /><path d="M432.75 268h10" /><g class="non-terminal ">
<path d="M442.75 268h0.0" /><path d="M530.75 268h0.0" /><rect height="22" width="88" x="442.75" y="257"></rect><text x="486.75" y="272">Equation</text></g><path d="M530.75 268h10" /><path d="M442.75 268a10 10 0 0 0 -10 10v0a10 10 0 0 0 10 10" /><g>
<path d="M442.75 288h88.0" /></g><path d="M530.75 288a10 10 0 0 0 10 -10v0a10 10 0 0 0 -10 -10" /></g><path d="M540.75 268h20" /></g><path d="M560.75 268h10" /><g class="terminal ">
<path d="M570.75 268h0.0" /><path d="M599.25 268h0.0" /><rect height="22" rx="10" ry="10" width="28.5" x="570.75" y="257"></rect><text x="585" y="272">}</text></g></g><path d="M714.5 268a10 10 0 0 0 10 -10v-217a10 10 0 0 1 10 -10" /><path d="M40.0 31a10 10 0 0 1 10 10v256a10 10 0 0 0 10 10" /><g class="non-terminal ">
<path d="M60.0 307h283.25" /><path d="M431.25 307h283.25" /><rect height="22" width="88" x="343.25" y="296"></rect><text x="387.25" y="311">AsmBlock</text></g><path d="M714.5 307a10 10 0 0 0 10 -10v-256a10 10 0 0 1 10 -10" /><path d="M40.0 31a10 10 0 0 1 10 10v295a10 10 0 0 0 10 10" /><g>
<path d="M60.0 346h97.25" /><path d="M617.25 346h97.25" /><g class="terminal ">
<path d="M157.25 346h0.0" /><path d="M194.25 346h0.0" /><rect height="22" rx="10" ry="10" width="37" x="157.25" y="335"></rect><text x="175.75" y="350">if</text></g><path d="M194.25 346h10" /><path d="M204.25 346h10" /><g class="terminal ">
<path d="M214.25 346h0.0" /><path d="M242.75 346h0.0" /><rect height="22" rx="10" ry="10" width="28.5" x="214.25" y="335"></rect><text x="228.5" y="350">(</text></g><path d="M242.75 346h10" /><path d="M252.75 346h10" /><g class="non-terminal ">
<path d="M262.75 346h0.0" /><path d="M316.75 346h0.0" /><rect height="22" width="54" x="262.75" y="335"></rect><text x="289.75" y="350">Expr</text></g><path d="M316.75 346h10" /><path d="M326.75 346h10" /><g class="terminal ">
<path d="M336.75 346h0.0" /><path d="M365.25 346h0.0" /><rect height="22" rx="10" ry="10" width="28.5" x="336.75" y="335"></rect><text x="351" y="350">)</text></g><path d="M365.25 346h10" /><path d="M375.25 346h10" /><g class="non-terminal ">
<path d="M385.25 346h0.0" /><path d="M439.25 346h0.0" /><rect height="22" width="54" x="385.25" y="335"></rect><text x="412.25" y="350">Body</text></g><path d="M439.25 346h10" /><g>
<path d="M449.25 346h0.0" /><path d="M617.25 346h0.0" /><path d="M449.25 346a10 10 0 0 0 10 -10v0a10 10 0 0 1 10 -10" /><g>
<path d="M469.25 326h128.0" /></g><path d="M597.25 326a10 10 0 0 1 10 10v0a10 10 0 0 0 10 10" /><path d="M449.25 346h20" /><g>
<path d="M469.25 346h0.0" /><path d="M597.25 346h0.0" /><g class="terminal ">
<path d="M469.25 346h0.0" /><path d="M523.25 346h0.0" /><rect height="22" rx="10" ry="10" width="54" x="469.25" y="335"></rect><text x="496.25" y="350">else</text></g><path d="M523.25 346h10" /><path d="M533.25 346h10" /><g class="non-terminal ">
<path d="M543.25 346h0.0" /><path d="M597.25 346h0.0" /><rect height="22" width="54" x="543.25" y="335"></rect><text x="570.25" y="350">Body</text></g></g><path d="M597.25 346h20" /></g></g><path d="M714.5 346a10 10 0 0 0 10 -10v-295a10 10 0 0 1 10 -10" /><path d="M40.0 31a10 10 0 0 1 10 10v325a10 10 0 0 0 10 10" /><g>
<path d="M60.0 376h0.0" /><path d="M714.5 376h0.0" /><g class="terminal ">
<path d="M60.0 376h0.0" /><path d="M105.5 376h0.0" /><rect height="22" rx="10" ry="10" width="45.5" x="60" y="365"></rect><text x="82.75" y="380">for</text></g><path d="M105.5 376h10" /><path d="M115.5 376h10" /><g class="terminal ">
<path d="M125.5 376h0.0" /><path d="M154.0 376h0.0" /><rect height="22" rx="10" ry="10" width="28.5" x="125.5" y="365"></rect><text x="139.75" y="380">(</text></g><path d="M154.0 376h10" /><path d="M164.0 376h10" /><g class="non-terminal ">
<path d="M174.0 376h0.0" /><path d="M287.5 376h0.0" /><rect height="22" width="113.5" x="174" y="365"></rect><text x="230.75" y="380">ForInitStmt</text></g><path d="M287.5 376h10" /><path d="M297.5 376h10" /><g class="terminal ">
<path d="M307.5 376h0.0" /><path d="M336.0 376h0.0" /><rect height="22" rx="10" ry="10" width="28.5" x="307.5" y="365"></rect><text x="321.75" y="380">;</text></g><path d="M336.0 376h10" /><path d="M346.0 376h10" /><g class="non-terminal ">
<path d="M356.0 376h0.0" /><path d="M410.0 376h0.0" /><rect height="22" width="54" x="356" y="365"></rect><text x="383" y="380">Expr</text></g><path d="M410.0 376h10" /><path d="M420.0 376h10" /><g class="terminal ">
<path d="M430.0 376h0.0" /><path d="M458.5 376h0.0" /><rect height="22" rx="10" ry="10" width="28.5" x="430" y="365"></rect><text x="444.25" y="380">;</text></g><path d="M458.5 376h10" /><path d="M468.5 376h10" /><g class="non-terminal ">
<path d="M478.5 376h0.0" /><path d="M592.0 376h0.0" /><rect height="22" width="113.5" x="478.5" y="365"></rect><text x="535.25" y="380">ForPostStmt</text></g><path d="M592.0 376h10" /><path d="M602.0 376h10" /><g class="terminal ">
<path d="M612.0 376h0.0" /><path d="M640.5 376h0.0" /><rect height="22" rx="10" ry="10" width="28.5" x="612" y="365"></rect><text x="626.25" y="380">)</text></g><path d="M640.5 376h10" /><path d="M650.5 376h10" /><g class="non-terminal ">
<path d="M660.5 376h0.0" /><path d="M714.5 376h0.0" /><rect height="22" width="54" x="660.5" y="365"></rect><text x="687.5" y="380">Body</text></g></g><path d="M714.5 376a10 10 0 0 0 10 -10v-325a10 10 0 0 1 10 -10" /></g><path d="M 734.5 31 h 20 m -10 -10 v 20 m 10 -20 v 20"></path></g></svg>