<svg xmlns="http://www.w3.org/2000/svg" class="railroad-diagram" height="62" viewBox="0 0 376.0 62" width="376.0">
<style>
svg.railroad-diagram { background: #fafafa; }
svg.railroad-diagram path { stroke-width: 2; stroke: #333; fill: none; }
svg.railroad-diagram text {
    font: bold 14px monospace; fill: #333;
    text-anchor: middle;
}
svg.railroad-diagram text.comment { font: italic 12px monospace; fill: #888; }
svg.railroad-diagram rect { stroke-width: 2; stroke: #333; fill: #fff; }
svg.railroad-diagram rect.group-box {
    stroke: #aaa; stroke-dasharray: 4 2; fill: none;
}
</style>
<g transform="translate(.5 .5)">
<g>
<path d="M20 21v20m10 -20v20m-10 -10h20" /></g><path d="M40 31h10" /><g>
<path d="M50 31h0.0" /><path d="M326.0 31h0.0" /><g class="non-terminal ">
<path d="M50.0 31h0.0" /><path d="M155.0 31h0.0" /><rect height="22" width="105" x="50" y="20"></rect><text x="102.5" y="35">Identifier</text></g><path d="M155.0 31h10" /><path d="M165.0 31h10" /><g class="terminal ">
<path d="M175.0 31h0.0" /><path d="M203.5 31h0.0" /><rect height="22" rx="10" ry="10" width="28.5" x="175" y="20"></rect><text x="189.25" y="35">:</text></g><path d="M203.5 31h10" /><path d="M213.5 31h10" /><g class="non-terminal ">
<path d="M223.5 31h0.0" /><path d="M277.5 31h0.0" /><rect height="22" width="54" x="223.5" y="20"></rect><text x="250.5" y="35">Type</text></g><path d="M277.5 31h10" /><path d="M287.5 31h10" /><g class="terminal ">
<path d="M297.5 31h0.0" /><path d="M326.0 31h0.0" /><rect height="22" rx="10" ry="10" width="28.5" x="297.5" y="20"></rect><text x="311.75" y="35">;</text></g></g><path d="M326.0 31h10" /><path d="M 336.0 31 h 20 m -10 -10 v 20 m 10 -20 v 20"></path></g></svg>