<svg xmlns="http://www.w3.org/2000/svg" class="railroad-diagram" height="122" viewBox="0 0 353.5 122" width="353.5">
<style>
svg.railroad-diagram { background: #fafafa; }
svg.railroad-diagram path { stroke-width: 2; stroke: #333; fill: none; }
svg.railroad-diagram text {
    font: bold 14px monospace; fill: #333;
    text-anchor: middle;
}
svg.railroad-diagram text.comment { font: italic 12px monospace; fill: #888; }
svg.railroad-diagram rect { stroke-width: 2; stroke: #333; fill: #fff; }
svg.railroad-diagram rect.group-box {
    stroke: #aaa; stroke-dasharray: 4 2; fill: none;
}
</style>
<g transform="translate(.5 .5)">
<g>
<path d="M20 21v20m10 -20v20m-10 -10h20" /></g><g>
<path d="M40 31h0.0" /><path d="M313.5 31h0.0" /><path d="M40.0 31h20" /><g class="terminal ">
<path d="M60.0 31h94.0" /><path d="M199.5 31h94.0" /><rect height="22" rx="10" ry="10" width="45.5" x="154" y="20"></rect><text x="176.75" y="35">inl</text></g><path d="M293.5 31h20" /><path d="M40.0 31a10 10 0 0 1 10 10v10a10 10 0 0 0 10 10" /><g class="terminal ">
<path d="M60.0 61h94.0" /><path d="M199.5 61h94.0" /><rect height="22" rx="10" ry="10" width="45.5" x="154" y="50"></rect><text x="176.75" y="65">inr</text></g><path d="M293.5 61a10 10 0 0 0 10 -10v-10a10 10 0 0 1 10 -10" /><path d="M40.0 31a10 10 0 0 1 10 10v40a10 10 0 0 0 10 10" /><g>
<path d="M60.0 91h0.0" /><path d="M293.5 91h0.0" /><g class="terminal ">
<path d="M60.0 91h0.0" /><path d="M97.0 91h0.0" /><rect height="22" rx="10" ry="10" width="37" x="60" y="80"></rect><text x="78.5" y="95">in</text></g><path d="M97.0 91h10" /><path d="M107.0 91h10" /><g class="terminal ">
<path d="M117.0 91h0.0" /><path d="M145.5 91h0.0" /><rect height="22" rx="10" ry="10" width="28.5" x="117" y="80"></rect><text x="131.25" y="95">(</text></g><path d="M145.5 91h10" /><path d="M155.5 91h10" /><g class="non-terminal ">
<path d="M165.5 91h0.0" /><path d="M245.0 91h0.0" /><rect height="22" width="79.5" x="165.5" y="80"></rect><text x="205.25" y="95">Integer</text></g><path d="M245.0 91h10" /><path d="M255.0 91h10" /><g class="terminal ">
<path d="M265.0 91h0.0" /><path d="M293.5 91h0.0" /><rect height="22" rx="10" ry="10" width="28.5" x="265" y="80"></rect><text x="279.25" y="95">)</text></g></g><path d="M293.5 91a10 10 0 0 0 10 -10v-40a10 10 0 0 1 10 -10" /></g><path d="M 313.5 31 h 20 m -10 -10 v 20 m 10 -20 v 20"></path></g></svg>