<svg xmlns="http://www.w3.org/2000/svg" class="railroad-diagram" height="242" viewBox="0 0 698.0 242" width="698.0">
<style>
svg.railroad-diagram { background: #fafafa; }
svg.railroad-diagram path { stroke-width: 2; stroke: #333; fill: none; }
svg.railroad-diagram text {
    font: bold 14px monospace; fill: #333;
    text-anchor: middle;
}
svg.railroad-diagram text.comment { font: italic 12px monospace; fill: #888; }
svg.railroad-diagram rect { stroke-width: 2; stroke: #333; fill: #fff; }
svg.railroad-diagram rect.group-box {
    stroke: #aaa; stroke-dasharray: 4 2; fill: none;
}
</style>
<g transform="translate(.5 .5)">
<g>
<path d="M20 21v20m10 -20v20m-10 -10h20" /></g><g>
<path d="M40 31h0.0" /><path d="M658.0 31h0.0" /><path d="M40.0 31h20" /><g>
<path d="M60.0 31h114.0" /><path d="M524.0 31h114.0" /><g class="terminal ">
<path d="M174.0 31h0.0" /><path d="M219.5 31h0.0" /><rect height="22" rx="10" ry="10" width="45.5" x="174" y="20"></rect><text x="196.75" y="35">inl</text></g><path d="M219.5 31h10" /><path d="M229.5 31h10" /><g class="terminal ">
<path d="M239.5 31h0.0" /><path d="M268.0 31h0.0" /><rect height="22" rx="10" ry="10" width="28.5" x="239.5" y="20"></rect><text x="253.75" y="35">&lt;</text></g><path d="M268.0 31h10" /><path d="M278.0 31h10" /><g class="non-terminal ">
<path d="M288.0 31h0.0" /><path d="M342.0 31h0.0" /><rect height="22" width="54" x="288" y="20"></rect><text x="315" y="35">Type</text></g><path d="M342.0 31h10" /><path d="M352.0 31h10" /><g class="terminal ">
<path d="M362.0 31h0.0" /><path d="M390.5 31h0.0" /><rect height="22" rx="10" ry="10" width="28.5" x="362" y="20"></rect><text x="376.25" y="35">></text></g><path d="M390.5 31h10" /><path d="M400.5 31h10" /><g class="non-terminal ">
<path d="M410.5 31h0.0" /><path d="M524.0 31h0.0" /><rect height="22" width="113.5" x="410.5" y="20"></rect><text x="467.25" y="35">PrimaryExpr</text></g></g><path d="M638.0 31h20" /><path d="M40.0 31a10 10 0 0 1 10 10v10a10 10 0 0 0 10 10" /><g>
<path d="M60.0 61h114.0" /><path d="M524.0 61h114.0" /><g class="terminal ">
<path d="M174.0 61h0.0" /><path d="M219.5 61h0.0" /><rect height="22" rx="10" ry="10" width="45.5" x="174" y="50"></rect><text x="196.75" y="65">inr</text></g><path d="M219.5 61h10" /><path d="M229.5 61h10" /><g class="terminal ">
<path d="M239.5 61h0.0" /><path d="M268.0 61h0.0" /><rect height="22" rx="10" ry="10" width="28.5" x="239.5" y="50"></rect><text x="253.75" y="65">&lt;</text></g><path d="M268.0 61h10" /><path d="M278.0 61h10" /><g class="non-terminal ">
<path d="M288.0 61h0.0" /><path d="M342.0 61h0.0" /><rect height="22" width="54" x="288" y="50"></rect><text x="315" y="65">Type</text></g><path d="M342.0 61h10" /><path d="M352.0 61h10" /><g class="terminal ">
<path d="M362.0 61h0.0" /><path d="M390.5 61h0.0" /><rect height="22" rx="10" ry="10" width="28.5" x="362" y="50"></rect><text x="376.25" y="65">></text></g><path d="M390.5 61h10" /><path d="M400.5 61h10" /><g class="non-terminal ">
<path d="M410.5 61h0.0" /><path d="M524.0 61h0.0" /><rect height="22" width="113.5" x="410.5" y="50"></rect><text x="467.25" y="65">PrimaryExpr</text></g></g><path d="M638.0 61a10 10 0 0 0 10 -10v-10a10 10 0 0 1 10 -10" /><path d="M40.0 31a10 10 0 0 1 10 10v40a10 10 0 0 0 10 10" /><g>
<path d="M60.0 91h20.0" /><path d="M618.0 91h20.0" /><g class="terminal ">
<path d="M80.0 91h0.0" /><path d="M117.0 91h0.0" /><rect height="22" rx="10" ry="10" width="37" x="80" y="80"></rect><text x="98.5" y="95">in</text></g><path d="M117.0 91h10" /><path d="M127.0 91h10" /><g class="terminal ">
<path d="M137.0 91h0.0" /><path d="M165.5 91h0.0" /><rect height="22" rx="10" ry="10" width="28.5" x="137" y="80"></rect><text x="151.25" y="95">(</text></g><path d="M165.5 91h10" /><path d="M175.5 91h10" /><g class="non-terminal ">
<path d="M185.5 91h0.0" /><path d="M265.0 91h0.0" /><rect height="22" width="79.5" x="185.5" y="80"></rect><text x="225.25" y="95">Integer</text></g><path d="M265.0 91h10" /><path d="M275.0 91h10" /><g class="terminal ">
<path d="M285.0 91h0.0" /><path d="M313.5 91h0.0" /><rect height="22" rx="10" ry="10" width="28.5" x="285" y="80"></rect><text x="299.25" y="95">)</text></g><path d="M313.5 91h10" /><path d="M323.5 91h10" /><g class="terminal ">
<path d="M333.5 91h0.0" /><path d="M362.0 91h0.0" /><rect height="22" rx="10" ry="10" width="28.5" x="333.5" y="80"></rect><text x="347.75" y="95">&lt;</text></g><path d="M362.0 91h10" /><path d="M372.0 91h10" /><g class="non-terminal ">
<path d="M382.0 91h0.0" /><path d="M436.0 91h0.0" /><rect height="22" width="54" x="382" y="80"></rect><text x="409" y="95">Type</text></g><path d="M436.0 91h10" /><path d="M446.0 91h10" /><g class="terminal ">
<path d="M456.0 91h0.0" /><path d="M484.5 91h0.0" /><rect height="22" rx="10" ry="10" width="28.5" x="456" y="80"></rect><text x="470.25" y="95">></text></g><path d="M484.5 91h10" /><path d="M494.5 91h10" /><g class="non-terminal ">
<path d="M504.5 91h0.0" /><path d="M618.0 91h0.0" /><rect height="22" width="113.5" x="504.5" y="80"></rect><text x="561.25" y="95">PrimaryExpr</text></g></g><path d="M638.0 91a10 10 0 0 0 10 -10v-40a10 10 0 0 1 10 -10" /><path d="M40.0 31a10 10 0 0 1 10 10v70a10 10 0 0 0 10 10" /><g>
<path d="M60.0 121h199.5" /><path d="M438.5 121h199.5" /><g class="terminal ">
<path d="M259.5 121h0.0" /><path d="M305.0 121h0.0" /><rect height="22" rx="10" ry="10" width="45.5" x="259.5" y="110"></rect><text x="282.25" y="125">fst</text></g><path d="M305.0 121h10" /><path d="M315.0 121h10" /><g class="non-terminal ">
<path d="M325.0 121h0.0" /><path d="M438.5 121h0.0" /><rect height="22" width="113.5" x="325" y="110"></rect><text x="381.75" y="125">PrimaryExpr</text></g></g><path d="M638.0 121a10 10 0 0 0 10 -10v-70a10 10 0 0 1 10 -10" /><path d="M40.0 31a10 10 0 0 1 10 10v100a10 10 0 0 0 10 10" /><g>
<path d="M60.0 151h199.5" /><path d="M438.5 151h199.5" /><g class="terminal ">
<path d="M259.5 151h0.0" /><path d="M305.0 151h0.0" /><rect height="22" rx="10" ry="10" width="45.5" x="259.5" y="140"></rect><text x="282.25" y="155">snd</text></g><path d="M305.0 151h10" /><path d="M315.0 151h10" /><g class="non-terminal ">
<path d="M325.0 151h0.0" /><path d="M438.5 151h0.0" /><rect height="22" width="113.5" x="325" y="140"></rect><text x="381.75" y="155">PrimaryExpr</text></g></g><path d="M638.0 151a10 10 0 0 0 10 -10v-100a10 10 0 0 1 10 -10" /><path d="M40.0 31a10 10 0 0 1 10 10v130a10 10 0 0 0 10 10" /><g>
<path d="M60.0 181h0.0" /><path d="M638.0 181h0.0" /><g class="terminal ">
<path d="M60.0 181h0.0" /><path d="M97.0 181h0.0" /><rect height="22" rx="10" ry="10" width="37" x="60" y="170"></rect><text x="78.5" y="185">if</text></g><path d="M97.0 181h10" /><path d="M107.0 181h10" /><g class="terminal ">
<path d="M117.0 181h0.0" /><path d="M145.5 181h0.0" /><rect height="22" rx="10" ry="10" width="28.5" x="117" y="170"></rect><text x="131.25" y="185">&lt;</text></g><path d="M145.5 181h10" /><path d="M155.5 181h10" /><g class="non-terminal ">
<path d="M165.5 181h0.0" /><path d="M219.5 181h0.0" /><rect height="22" width="54" x="165.5" y="170"></rect><text x="192.5" y="185">Type</text></g><path d="M219.5 181h10" /><path d="M229.5 181h10" /><g class="terminal ">
<path d="M239.5 181h0.0" /><path d="M268.0 181h0.0" /><rect height="22" rx="10" ry="10" width="28.5" x="239.5" y="170"></rect><text x="253.75" y="185">></text></g><path d="M268.0 181h10" /><path d="M278.0 181h10" /><g class="non-terminal ">
<path d="M288.0 181h0.0" /><path d="M342.0 181h0.0" /><rect height="22" width="54" x="288" y="170"></rect><text x="315" y="185">Expr</text></g><path d="M342.0 181h10" /><path d="M352.0 181h10" /><g class="terminal ">
<path d="M362.0 181h0.0" /><path d="M416.0 181h0.0" /><rect height="22" rx="10" ry="10" width="54" x="362" y="170"></rect><text x="389" y="185">then</text></g><path d="M416.0 181h10" /><path d="M426.0 181h10" /><g class="non-terminal ">
<path d="M436.0 181h0.0" /><path d="M490.0 181h0.0" /><rect height="22" width="54" x="436" y="170"></rect><text x="463" y="185">Expr</text></g><path d="M490.0 181h10" /><path d="M500.0 181h10" /><g class="terminal ">
<path d="M510.0 181h0.0" /><path d="M564.0 181h0.0" /><rect height="22" rx="10" ry="10" width="54" x="510" y="170"></rect><text x="537" y="185">else</text></g><path d="M564.0 181h10" /><path d="M574.0 181h10" /><g class="non-terminal ">
<path d="M584.0 181h0.0" /><path d="M638.0 181h0.0" /><rect height="22" width="54" x="584" y="170"></rect><text x="611" y="185">Expr</text></g></g><path d="M638.0 181a10 10 0 0 0 10 -10v-130a10 10 0 0 1 10 -10" /><path d="M40.0 31a10 10 0 0 1 10 10v160a10 10 0 0 0 10 10" /><g class="non-terminal ">
<path d="M60.0 211h232.25" /><path d="M405.75 211h232.25" /><rect height="22" width="113.5" x="292.25" y="200"></rect><text x="349" y="215">PrimaryExpr</text></g><path d="M638.0 211a10 10 0 0 0 10 -10v-160a10 10 0 0 1 10 -10" /></g><path d="M 658.0 31 h 20 m -10 -10 v 20 m 10 -20 v 20"></path></g></svg>