<svg xmlns="http://www.w3.org/2000/svg" class="railroad-diagram" height="62" viewBox="0 0 712.0 62" width="712.0">
<style>
svg.railroad-diagram { background: #fafafa; }
svg.railroad-diagram path { stroke-width:2; stroke:#333; fill:none; }
svg.railroad-diagram text { font:bold 14px monospace; fill:#333; text-anchor:middle; }
svg.railroad-diagram text.comment { font:italic 12px monospace; fill:#888; }
svg.railroad-diagram rect { stroke-width:2; stroke:#333; fill:#fff; }
svg.railroad-diagram rect.group-box { stroke:#aaa; stroke-dasharray:4 2; fill:none; }
</style>
<g transform="translate(.5 .5)">
<g>
<path d="M20 21v20m10 -20v20m-10 -10h20" /></g><path d="M40 31h10" /><g>
<path d="M50 31h0.0" /><path d="M662.0 31h0.0" /><g class="terminal ">
<path d="M50.0 31h0.0" /><path d="M87.0 31h0.0" /><rect height="22" rx="10" ry="10" width="37" x="50" y="20"></rect><text x="68.5" y="35">if</text></g><path d="M87.0 31h10" /><path d="M97.0 31h10" /><g class="terminal ">
<path d="M107.0 31h0.0" /><path d="M152.5 31h0.0" /><rect height="22" rx="10" ry="10" width="45.5" x="107" y="20"></rect><text x="129.75" y="35">&quot;&lt;&quot;</text></g><path d="M152.5 31h10" /><path d="M162.5 31h10" /><g class="non-terminal ">
<path d="M172.5 31h0.0" /><path d="M226.5 31h0.0" /><rect height="22" width="54" x="172.5" y="20"></rect><text x="199.5" y="35">Type</text></g><path d="M226.5 31h10" /><path d="M236.5 31h10" /><g class="terminal ">
<path d="M246.5 31h0.0" /><path d="M292.0 31h0.0" /><rect height="22" rx="10" ry="10" width="45.5" x="246.5" y="20"></rect><text x="269.25" y="35">&quot;>&quot;</text></g><path d="M292.0 31h10" /><path d="M302.0 31h10" /><g class="non-terminal ">
<path d="M312.0 31h0.0" /><path d="M366.0 31h0.0" /><rect height="22" width="54" x="312" y="20"></rect><text x="339" y="35">Expr</text></g><path d="M366.0 31h10" /><path d="M376.0 31h10" /><g class="terminal ">
<path d="M386.0 31h0.0" /><path d="M440.0 31h0.0" /><rect height="22" rx="10" ry="10" width="54" x="386" y="20"></rect><text x="413" y="35">then</text></g><path d="M440.0 31h10" /><path d="M450.0 31h10" /><g class="non-terminal ">
<path d="M460.0 31h0.0" /><path d="M514.0 31h0.0" /><rect height="22" width="54" x="460" y="20"></rect><text x="487" y="35">Expr</text></g><path d="M514.0 31h10" /><path d="M524.0 31h10" /><g class="terminal ">
<path d="M534.0 31h0.0" /><path d="M588.0 31h0.0" /><rect height="22" rx="10" ry="10" width="54" x="534" y="20"></rect><text x="561" y="35">else</text></g><path d="M588.0 31h10" /><path d="M598.0 31h10" /><g class="non-terminal ">
<path d="M608.0 31h0.0" /><path d="M662.0 31h0.0" /><rect height="22" width="54" x="608" y="20"></rect><text x="635" y="35">Expr</text></g></g><path d="M662.0 31h10" /><path d="M 672.0 31 h 20 m -10 -10 v 20 m 10 -20 v 20"></path></g></svg>