<svg xmlns="http://www.w3.org/2000/svg" class="railroad-diagram" height="80" viewBox="0 0 629.5 80" width="629.5">
<style>
svg.railroad-diagram { background: #fafafa; }
svg.railroad-diagram path { stroke-width: 2; stroke: #333; fill: none; }
svg.railroad-diagram text {
    font: bold 14px monospace; fill: #333;
    text-anchor: middle;
}
svg.railroad-diagram text.comment { font: italic 12px monospace; fill: #888; }
svg.railroad-diagram rect { stroke-width: 2; stroke: #333; fill: #fff; }
svg.railroad-diagram rect.group-box {
    stroke: #aaa; stroke-dasharray: 4 2; fill: none;
}
</style>
<g transform="translate(.5 .5)">
<g>
<path d="M20 30v20m10 -20v20m-10 -10h20" /></g><path d="M40 40h10" /><g>
<path d="M50 40h0.0" /><path d="M579.5 40h0.0" /><g class="terminal ">
<path d="M50.0 40h0.0" /><path d="M121.0 40h0.0" /><rect height="22" rx="10" ry="10" width="71" x="50" y="29"></rect><text x="85.5" y="44">object</text></g><path d="M121.0 40h10" /><path d="M131.0 40h10" /><g class="non-terminal ">
<path d="M141.0 40h0.0" /><path d="M195.0 40h0.0" /><rect height="22" width="54" x="141" y="29"></rect><text x="168" y="44">Name</text></g><path d="M195.0 40h10" /><path d="M205.0 40h10" /><g class="terminal ">
<path d="M215.0 40h0.0" /><path d="M243.5 40h0.0" /><rect height="22" rx="10" ry="10" width="28.5" x="215" y="29"></rect><text x="229.25" y="44">{</text></g><path d="M243.5 40h10" /><path d="M253.5 40h10" /><g class="terminal ">
<path d="M263.5 40h0.0" /><path d="M317.5 40h0.0" /><rect height="22" rx="10" ry="10" width="54" x="263.5" y="29"></rect><text x="290.5" y="44">code</text></g><path d="M317.5 40h10" /><path d="M327.5 40h10" /><g class="non-terminal ">
<path d="M337.5 40h0.0" /><path d="M400.0 40h0.0" /><rect height="22" width="62.5" x="337.5" y="29"></rect><text x="368.75" y="44">Block</text></g><path d="M400.0 40h10" /><g>
<path d="M410.0 40h0.0" /><path d="M541.0 40h0.0" /><path d="M410.0 40a10 10 0 0 0 10 -10v0a10 10 0 0 1 10 -10" /><g>
<path d="M430.0 20h91.0" /></g><path d="M521.0 20a10 10 0 0 1 10 10v0a10 10 0 0 0 10 10" /><path d="M410.0 40h20" /><g>
<path d="M430.0 40h0.0" /><path d="M521.0 40h0.0" /><path d="M430.0 40h10" /><g class="non-terminal ">
<path d="M440.0 40h0.0" /><path d="M511.0 40h0.0" /><rect height="22" width="71" x="440" y="29"></rect><text x="475.5" y="44">Object</text></g><path d="M511.0 40h10" /><path d="M440.0 40a10 10 0 0 0 -10 10v0a10 10 0 0 0 10 10" /><g>
<path d="M440.0 60h71.0" /></g><path d="M511.0 60a10 10 0 0 0 10 -10v0a10 10 0 0 0 -10 -10" /></g><path d="M521.0 40h20" /></g><path d="M541.0 40h10" /><g class="terminal ">
<path d="M551.0 40h0.0" /><path d="M579.5 40h0.0" /><rect height="22" rx="10" ry="10" width="28.5" x="551" y="29"></rect><text x="565.25" y="44">}</text></g></g><path d="M579.5 40h10" /><path d="M 589.5 40 h 20 m -10 -10 v 20 m 10 -20 v 20"></path></g></svg>