<svg xmlns="http://www.w3.org/2000/svg" class="railroad-diagram" height="230" viewBox="0 0 499.0 230" width="499.0">
<style>
svg.railroad-diagram { background: #fafafa; }
svg.railroad-diagram path { stroke-width: 2; stroke: #333; fill: none; }
svg.railroad-diagram text {
    font: bold 14px monospace; fill: #333;
    text-anchor: middle;
}
svg.railroad-diagram text.comment { font: italic 12px monospace; fill: #888; }
svg.railroad-diagram rect { stroke-width: 2; stroke: #333; fill: #fff; }
svg.railroad-diagram rect.group-box {
    stroke: #aaa; stroke-dasharray: 4 2; fill: none;
}
</style>
<g transform="translate(.5 .5)">
<g>
<path d="M20 21v20m10 -20v20m-10 -10h20" /></g><g>
<path d="M40 31h0.0" /><path d="M459.0 31h0.0" /><path d="M40.0 31h20" /><g class="terminal ">
<path d="M60.0 31h162.5" /><path d="M276.5 31h162.5" /><rect height="22" rx="10" ry="10" width="54" x="222.5" y="20"></rect><text x="249.5" y="35">word</text></g><path d="M439.0 31h20" /><path d="M40.0 31a10 10 0 0 1 10 10v10a10 10 0 0 0 10 10" /><g class="terminal ">
<path d="M60.0 61h162.5" /><path d="M276.5 61h162.5" /><rect height="22" rx="10" ry="10" width="54" x="222.5" y="50"></rect><text x="249.5" y="65">bool</text></g><path d="M439.0 61a10 10 0 0 0 10 -10v-10a10 10 0 0 1 10 -10" /><path d="M40.0 31a10 10 0 0 1 10 10v40a10 10 0 0 0 10 10" /><g class="terminal ">
<path d="M60.0 91h162.5" /><path d="M276.5 91h162.5" /><rect height="22" rx="10" ry="10" width="54" x="222.5" y="80"></rect><text x="249.5" y="95">unit</text></g><path d="M439.0 91a10 10 0 0 0 10 -10v-40a10 10 0 0 1 10 -10" /><path d="M40.0 31a10 10 0 0 1 10 10v79a10 10 0 0 0 10 10" /><g>
<path d="M60.0 130h0.0" /><path d="M439.0 130h0.0" /><g class="terminal ">
<path d="M60.0 130h0.0" /><path d="M105.5 130h0.0" /><rect height="22" rx="10" ry="10" width="45.5" x="60" y="119"></rect><text x="82.75" y="134">sum</text></g><path d="M105.5 130h10" /><path d="M115.5 130h10" /><g class="terminal ">
<path d="M125.5 130h0.0" /><path d="M154.0 130h0.0" /><rect height="22" rx="10" ry="10" width="28.5" x="125.5" y="119"></rect><text x="139.75" y="134">(</text></g><path d="M154.0 130h10" /><path d="M164.0 130h10" /><g class="non-terminal ">
<path d="M174.0 130h0.0" /><path d="M228.0 130h0.0" /><rect height="22" width="54" x="174" y="119"></rect><text x="201" y="134">Type</text></g><path d="M228.0 130h10" /><g>
<path d="M238.0 130h0.0" /><path d="M400.5 130h0.0" /><path d="M238.0 130a10 10 0 0 0 10 -10v0a10 10 0 0 1 10 -10" /><g>
<path d="M258.0 110h122.5" /></g><path d="M380.5 110a10 10 0 0 1 10 10v0a10 10 0 0 0 10 10" /><path d="M238.0 130h20" /><g>
<path d="M258.0 130h0.0" /><path d="M380.5 130h0.0" /><path d="M258.0 130h10" /><g>
<path d="M268.0 130h0.0" /><path d="M370.5 130h0.0" /><g class="terminal ">
<path d="M268.0 130h0.0" /><path d="M296.5 130h0.0" /><rect height="22" rx="10" ry="10" width="28.5" x="268" y="119"></rect><text x="282.25" y="134">,</text></g><path d="M296.5 130h10" /><path d="M306.5 130h10" /><g class="non-terminal ">
<path d="M316.5 130h0.0" /><path d="M370.5 130h0.0" /><rect height="22" width="54" x="316.5" y="119"></rect><text x="343.5" y="134">Type</text></g></g><path d="M370.5 130h10" /><path d="M268.0 130a10 10 0 0 0 -10 10v0a10 10 0 0 0 10 10" /><g>
<path d="M268.0 150h102.5" /></g><path d="M370.5 150a10 10 0 0 0 10 -10v0a10 10 0 0 0 -10 -10" /></g><path d="M380.5 130h20" /></g><path d="M400.5 130h10" /><g class="terminal ">
<path d="M410.5 130h0.0" /><path d="M439.0 130h0.0" /><rect height="22" rx="10" ry="10" width="28.5" x="410.5" y="119"></rect><text x="424.75" y="134">)</text></g></g><path d="M439.0 130a10 10 0 0 0 10 -10v-79a10 10 0 0 1 10 -10" /><path d="M40.0 31a10 10 0 0 1 10 10v118a10 10 0 0 0 10 10" /><g>
<path d="M60.0 169h77.0" /><path d="M362.0 169h77.0" /><g class="non-terminal ">
<path d="M137.0 169h0.0" /><path d="M191.0 169h0.0" /><rect height="22" width="54" x="137" y="158"></rect><text x="164" y="173">Name</text></g><path d="M191.0 169h10" /><path d="M201.0 169h10" /><g class="terminal ">
<path d="M211.0 169h0.0" /><path d="M239.5 169h0.0" /><rect height="22" rx="10" ry="10" width="28.5" x="211" y="158"></rect><text x="225.25" y="173">{</text></g><path d="M239.5 169h10" /><path d="M249.5 169h10" /><g class="non-terminal ">
<path d="M259.5 169h0.0" /><path d="M313.5 169h0.0" /><rect height="22" width="54" x="259.5" y="158"></rect><text x="286.5" y="173">Type</text></g><path d="M313.5 169h10" /><path d="M323.5 169h10" /><g class="terminal ">
<path d="M333.5 169h0.0" /><path d="M362.0 169h0.0" /><rect height="22" rx="10" ry="10" width="28.5" x="333.5" y="158"></rect><text x="347.75" y="173">}</text></g></g><path d="M439.0 169a10 10 0 0 0 10 -10v-118a10 10 0 0 1 10 -10" /><path d="M40.0 31a10 10 0 0 1 10 10v148a10 10 0 0 0 10 10" /><g>
<path d="M60.0 199h114.0" /><path d="M325.0 199h114.0" /><g class="terminal ">
<path d="M174.0 199h0.0" /><path d="M202.5 199h0.0" /><rect height="22" rx="10" ry="10" width="28.5" x="174" y="188"></rect><text x="188.25" y="203">(</text></g><path d="M202.5 199h10" /><path d="M212.5 199h10" /><g class="non-terminal ">
<path d="M222.5 199h0.0" /><path d="M276.5 199h0.0" /><rect height="22" width="54" x="222.5" y="188"></rect><text x="249.5" y="203">Type</text></g><path d="M276.5 199h10" /><path d="M286.5 199h10" /><g class="terminal ">
<path d="M296.5 199h0.0" /><path d="M325.0 199h0.0" /><rect height="22" rx="10" ry="10" width="28.5" x="296.5" y="188"></rect><text x="310.75" y="203">)</text></g></g><path d="M439.0 199a10 10 0 0 0 10 -10v-148a10 10 0 0 1 10 -10" /></g><path d="M 459.0 31 h 20 m -10 -10 v 20 m 10 -20 v 20"></path></g></svg>