<svg xmlns="http://www.w3.org/2000/svg" class="railroad-diagram" height="286" viewBox="0 0 537.5 286" width="537.5">
<style>
svg.railroad-diagram { background: #fafafa; }
svg.railroad-diagram path { stroke-width: 2; stroke: #333; fill: none; }
svg.railroad-diagram text {
    font: bold 14px monospace; fill: #333;
    text-anchor: middle;
}
svg.railroad-diagram text.comment { font: italic 12px monospace; fill: #888; }
svg.railroad-diagram rect { stroke-width: 2; stroke: #333; fill: #fff; }
svg.railroad-diagram rect.group-box {
    stroke: #aaa; stroke-dasharray: 4 2; fill: none;
}
</style>
<g transform="translate(.5 .5)">
<g>
<path d="M20 21v20m10 -20v20m-10 -10h20" /></g><g>
<path d="M40 31h0.0" /><path d="M497.5 31h0.0" /><path d="M40.0 31h20" /><g class="non-terminal ">
<path d="M60.0 31h169.0" /><path d="M308.5 31h169.0" /><rect height="22" width="79.5" x="229" y="20"></rect><text x="268.75" y="35">Integer</text></g><path d="M477.5 31h20" /><path d="M40.0 31a10 10 0 0 1 10 10v10a10 10 0 0 0 10 10" /><g class="terminal ">
<path d="M60.0 61h181.75" /><path d="M295.75 61h181.75" /><rect height="22" rx="10" ry="10" width="54" x="241.75" y="50"></rect><text x="268.75" y="65">true</text></g><path d="M477.5 61a10 10 0 0 0 10 -10v-10a10 10 0 0 1 10 -10" /><path d="M40.0 31a10 10 0 0 1 10 10v40a10 10 0 0 0 10 10" /><g class="terminal ">
<path d="M60.0 91h177.5" /><path d="M300.0 91h177.5" /><rect height="22" rx="10" ry="10" width="62.5" x="237.5" y="80"></rect><text x="268.75" y="95">false</text></g><path d="M477.5 91a10 10 0 0 0 10 -10v-40a10 10 0 0 1 10 -10" /><path d="M40.0 31a10 10 0 0 1 10 10v70a10 10 0 0 0 10 10" /><g>
<path d="M60.0 121h170.25" /><path d="M307.25 121h170.25" /><g class="terminal ">
<path d="M230.25 121h0.0" /><path d="M258.75 121h0.0" /><rect height="22" rx="10" ry="10" width="28.5" x="230.25" y="110"></rect><text x="244.5" y="125">(</text></g><path d="M258.75 121h10" /><path d="M268.75 121h10" /><g class="terminal ">
<path d="M278.75 121h0.0" /><path d="M307.25 121h0.0" /><rect height="22" rx="10" ry="10" width="28.5" x="278.75" y="110"></rect><text x="293" y="125">)</text></g></g><path d="M477.5 121a10 10 0 0 0 10 -10v-70a10 10 0 0 1 10 -10" /><path d="M40.0 31a10 10 0 0 1 10 10v109a10 10 0 0 0 10 10" /><g>
<path d="M60.0 160h52.0" /><path d="M425.5 160h52.0" /><g class="terminal ">
<path d="M112.0 160h0.0" /><path d="M140.5 160h0.0" /><rect height="22" rx="10" ry="10" width="28.5" x="112" y="149"></rect><text x="126.25" y="164">(</text></g><path d="M140.5 160h10" /><path d="M150.5 160h10" /><g class="non-terminal ">
<path d="M160.5 160h0.0" /><path d="M214.5 160h0.0" /><rect height="22" width="54" x="160.5" y="149"></rect><text x="187.5" y="164">Expr</text></g><path d="M214.5 160h10" /><g>
<path d="M224.5 160h0.0" /><path d="M387.0 160h0.0" /><path d="M224.5 160a10 10 0 0 0 10 -10v0a10 10 0 0 1 10 -10" /><g>
<path d="M244.5 140h122.5" /></g><path d="M367.0 140a10 10 0 0 1 10 10v0a10 10 0 0 0 10 10" /><path d="M224.5 160h20" /><g>
<path d="M244.5 160h0.0" /><path d="M367.0 160h0.0" /><path d="M244.5 160h10" /><g>
<path d="M254.5 160h0.0" /><path d="M357.0 160h0.0" /><g class="terminal ">
<path d="M254.5 160h0.0" /><path d="M283.0 160h0.0" /><rect height="22" rx="10" ry="10" width="28.5" x="254.5" y="149"></rect><text x="268.75" y="164">,</text></g><path d="M283.0 160h10" /><path d="M293.0 160h10" /><g class="non-terminal ">
<path d="M303.0 160h0.0" /><path d="M357.0 160h0.0" /><rect height="22" width="54" x="303" y="149"></rect><text x="330" y="164">Expr</text></g></g><path d="M357.0 160h10" /><path d="M254.5 160a10 10 0 0 0 -10 10v0a10 10 0 0 0 10 10" /><g>
<path d="M254.5 180h102.5" /></g><path d="M357.0 180a10 10 0 0 0 10 -10v0a10 10 0 0 0 -10 -10" /></g><path d="M367.0 160h20" /></g><path d="M387.0 160h10" /><g class="terminal ">
<path d="M397.0 160h0.0" /><path d="M425.5 160h0.0" /><rect height="22" rx="10" ry="10" width="28.5" x="397" y="149"></rect><text x="411.25" y="164">)</text></g></g><path d="M477.5 160a10 10 0 0 0 10 -10v-109a10 10 0 0 1 10 -10" /><path d="M40.0 31a10 10 0 0 1 10 10v165a10 10 0 0 0 10 10" /><g>
<path d="M60.0 216h0.0" /><path d="M477.5 216h0.0" /><g class="non-terminal ">
<path d="M60.0 216h0.0" /><path d="M114.0 216h0.0" /><rect height="22" width="54" x="60" y="205"></rect><text x="87" y="220">Name</text></g><path d="M114.0 216h10" /><path d="M124.0 216h10" /><g class="terminal ">
<path d="M134.0 216h0.0" /><path d="M162.5 216h0.0" /><rect height="22" rx="10" ry="10" width="28.5" x="134" y="205"></rect><text x="148.25" y="220">(</text></g><path d="M162.5 216h10" /><g>
<path d="M172.5 216h0.0" /><path d="M439.0 216h0.0" /><path d="M172.5 216a10 10 0 0 0 10 -10v-8a10 10 0 0 1 10 -10" /><g>
<path d="M192.5 188h226.5" /></g><path d="M419.0 188a10 10 0 0 1 10 10v8a10 10 0 0 0 10 10" /><path d="M172.5 216h20" /><g>
<path d="M192.5 216h0.0" /><path d="M419.0 216h0.0" /><g class="non-terminal ">
<path d="M192.5 216h0.0" /><path d="M246.5 216h0.0" /><rect height="22" width="54" x="192.5" y="205"></rect><text x="219.5" y="220">Expr</text></g><path d="M246.5 216h10" /><g>
<path d="M256.5 216h0.0" /><path d="M419.0 216h0.0" /><path d="M256.5 216a10 10 0 0 0 10 -10v0a10 10 0 0 1 10 -10" /><g>
<path d="M276.5 196h122.5" /></g><path d="M399.0 196a10 10 0 0 1 10 10v0a10 10 0 0 0 10 10" /><path d="M256.5 216h20" /><g>
<path d="M276.5 216h0.0" /><path d="M399.0 216h0.0" /><path d="M276.5 216h10" /><g>
<path d="M286.5 216h0.0" /><path d="M389.0 216h0.0" /><g class="terminal ">
<path d="M286.5 216h0.0" /><path d="M315.0 216h0.0" /><rect height="22" rx="10" ry="10" width="28.5" x="286.5" y="205"></rect><text x="300.75" y="220">,</text></g><path d="M315.0 216h10" /><path d="M325.0 216h10" /><g class="non-terminal ">
<path d="M335.0 216h0.0" /><path d="M389.0 216h0.0" /><rect height="22" width="54" x="335" y="205"></rect><text x="362" y="220">Expr</text></g></g><path d="M389.0 216h10" /><path d="M286.5 216a10 10 0 0 0 -10 10v0a10 10 0 0 0 10 10" /><g>
<path d="M286.5 236h102.5" /></g><path d="M389.0 236a10 10 0 0 0 10 -10v0a10 10 0 0 0 -10 -10" /></g><path d="M399.0 216h20" /></g></g><path d="M419.0 216h20" /></g><path d="M439.0 216h10" /><g class="terminal ">
<path d="M449.0 216h0.0" /><path d="M477.5 216h0.0" /><rect height="22" rx="10" ry="10" width="28.5" x="449" y="205"></rect><text x="463.25" y="220">)</text></g></g><path d="M477.5 216a10 10 0 0 0 10 -10v-165a10 10 0 0 1 10 -10" /><path d="M40.0 31a10 10 0 0 1 10 10v204a10 10 0 0 0 10 10" /><g class="non-terminal ">
<path d="M60.0 255h181.75" /><path d="M295.75 255h181.75" /><rect height="22" width="54" x="241.75" y="244"></rect><text x="268.75" y="259">Name</text></g><path d="M477.5 255a10 10 0 0 0 10 -10v-204a10 10 0 0 1 10 -10" /></g><path d="M 497.5 31 h 20 m -10 -10 v 20 m 10 -20 v 20"></path></g></svg>