<svg xmlns="http://www.w3.org/2000/svg" class="railroad-diagram" height="62" viewBox="0 0 302.0 62" width="302.0">
<style>
svg.railroad-diagram { background: #fafafa; }
svg.railroad-diagram path { stroke-width:2; stroke:#333; fill:none; }
svg.railroad-diagram text { font:bold 14px monospace; fill:#333; text-anchor:middle; }
svg.railroad-diagram text.comment { font:italic 12px monospace; fill:#888; }
svg.railroad-diagram rect { stroke-width:2; stroke:#333; fill:#fff; }
svg.railroad-diagram rect.group-box { stroke:#aaa; stroke-dasharray:4 2; fill:none; }
</style>
<g transform="translate(.5 .5)">
<g>
<path d="M20 21v20m10 -20v20m-10 -10h20" /></g><path d="M40 31h10" /><g>
<path d="M50 31h0.0" /><path d="M252.0 31h0.0" /><g class="non-terminal ">
<path d="M50.0 31h0.0" /><path d="M104.0 31h0.0" /><rect height="22" width="54" x="50" y="20"></rect><text x="77" y="35">Expr</text></g><path d="M104.0 31h10" /><path d="M114.0 31h10" /><g class="terminal ">
<path d="M124.0 31h0.0" /><path d="M178.0 31h0.0" /><rect height="22" rx="10" ry="10" width="54" x="124" y="20"></rect><text x="151" y="35">&quot;:=&quot;</text></g><path d="M178.0 31h10" /><path d="M188.0 31h10" /><g class="non-terminal ">
<path d="M198.0 31h0.0" /><path d="M252.0 31h0.0" /><rect height="22" width="54" x="198" y="20"></rect><text x="225" y="35">Expr</text></g></g><path d="M252.0 31h10" /><path d="M 262.0 31 h 20 m -10 -10 v 20 m 10 -20 v 20"></path></g></svg>