<svg xmlns="http://www.w3.org/2000/svg" class="railroad-diagram" height="80" viewBox="0 0 325.0 80" width="325.0">
<style>
svg.railroad-diagram { background: #fafafa; }
svg.railroad-diagram path { stroke-width:2; stroke:#333; fill:none; }
svg.railroad-diagram text { font:bold 14px monospace; fill:#333; text-anchor:middle; }
svg.railroad-diagram text.comment { font:italic 12px monospace; fill:#888; }
svg.railroad-diagram rect { stroke-width:2; stroke:#333; fill:#fff; }
svg.railroad-diagram rect.group-box { stroke:#aaa; stroke-dasharray:4 2; fill:none; }
</style>
<g transform="translate(.5 .5)">
<g>
<path d="M20 30v20m10 -20v20m-10 -10h20" /></g><path d="M40 40h10" /><g>
<path d="M50 40h0.0" /><path d="M275.0 40h0.0" /><g class="terminal ">
<path d="M50.0 40h0.0" /><path d="M95.5 40h0.0" /><rect height="22" rx="10" ry="10" width="45.5" x="50" y="29"></rect><text x="72.75" y="44">&quot;{&quot;</text></g><path d="M95.5 40h10" /><g>
<path d="M105.5 40h0.0" /><path d="M219.5 40h0.0" /><path d="M105.5 40a10 10 0 0 0 10 -10v0a10 10 0 0 1 10 -10" /><g>
<path d="M125.5 20h74.0" /></g><path d="M199.5 20a10 10 0 0 1 10 10v0a10 10 0 0 0 10 10" /><path d="M105.5 40h20" /><g>
<path d="M125.5 40h0.0" /><path d="M199.5 40h0.0" /><path d="M125.5 40h10" /><g class="non-terminal ">
<path d="M135.5 40h0.0" /><path d="M189.5 40h0.0" /><rect height="22" width="54" x="135.5" y="29"></rect><text x="162.5" y="44">Stmt</text></g><path d="M189.5 40h10" /><path d="M135.5 40a10 10 0 0 0 -10 10v0a10 10 0 0 0 10 10" /><g>
<path d="M135.5 60h54.0" /></g><path d="M189.5 60a10 10 0 0 0 10 -10v0a10 10 0 0 0 -10 -10" /></g><path d="M199.5 40h20" /></g><path d="M219.5 40h10" /><g class="terminal ">
<path d="M229.5 40h0.0" /><path d="M275.0 40h0.0" /><rect height="22" rx="10" ry="10" width="45.5" x="229.5" y="29"></rect><text x="252.25" y="44">&quot;}&quot;</text></g></g><path d="M275.0 40h10" /><path d="M 285.0 40 h 20 m -10 -10 v 20 m 10 -20 v 20"></path></g></svg>