<svg xmlns="http://www.w3.org/2000/svg" class="railroad-diagram" height="122" viewBox="0 0 356.0 122" width="356.0">
<style>
svg.railroad-diagram { background: #fafafa; }
svg.railroad-diagram path { stroke-width: 2; stroke: #333; fill: none; }
svg.railroad-diagram text {
    font: bold 14px monospace; fill: #333;
    text-anchor: middle;
}
svg.railroad-diagram text.comment { font: italic 12px monospace; fill: #888; }
svg.railroad-diagram rect { stroke-width: 2; stroke: #333; fill: #fff; }
svg.railroad-diagram rect.group-box {
    stroke: #aaa; stroke-dasharray: 4 2; fill: none;
}
</style>
<g transform="translate(.5 .5)">
<g>
<path d="M20 21v20m10 -20v20m-10 -10h20" /></g><g>
<path d="M40 31h0.0" /><path d="M316.0 31h0.0" /><path d="M40.0 31h20" /><g class="non-terminal ">
<path d="M60.0 31h61.25" /><path d="M234.75 31h61.25" /><rect height="22" width="113.5" x="121.25" y="20"></rect><text x="178" y="35">PrimaryType</text></g><path d="M296.0 31h20" /><path d="M40.0 31a10 10 0 0 1 10 10v10a10 10 0 0 0 10 10" /><g>
<path d="M60.0 61h0.0" /><path d="M296.0 61h0.0" /><g class="non-terminal ">
<path d="M60.0 61h0.0" /><path d="M173.5 61h0.0" /><rect height="22" width="113.5" x="60" y="50"></rect><text x="116.75" y="65">PrimaryType</text></g><path d="M173.5 61h10" /><path d="M183.5 61h10" /><g class="terminal ">
<path d="M193.5 61h0.0" /><path d="M222.0 61h0.0" /><rect height="22" rx="10" ry="10" width="28.5" x="193.5" y="50"></rect><text x="207.75" y="65">*</text></g><path d="M222.0 61h10" /><path d="M232.0 61h10" /><g class="non-terminal ">
<path d="M242.0 61h0.0" /><path d="M296.0 61h0.0" /><rect height="22" width="54" x="242" y="50"></rect><text x="269" y="65">Type</text></g></g><path d="M296.0 61a10 10 0 0 0 10 -10v-10a10 10 0 0 1 10 -10" /><path d="M40.0 31a10 10 0 0 1 10 10v40a10 10 0 0 0 10 10" /><g>
<path d="M60.0 91h0.0" /><path d="M296.0 91h0.0" /><g class="non-terminal ">
<path d="M60.0 91h0.0" /><path d="M173.5 91h0.0" /><rect height="22" width="113.5" x="60" y="80"></rect><text x="116.75" y="95">PrimaryType</text></g><path d="M173.5 91h10" /><path d="M183.5 91h10" /><g class="terminal ">
<path d="M193.5 91h0.0" /><path d="M222.0 91h0.0" /><rect height="22" rx="10" ry="10" width="28.5" x="193.5" y="80"></rect><text x="207.75" y="95">+</text></g><path d="M222.0 91h10" /><path d="M232.0 91h10" /><g class="non-terminal ">
<path d="M242.0 91h0.0" /><path d="M296.0 91h0.0" /><rect height="22" width="54" x="242" y="80"></rect><text x="269" y="95">Type</text></g></g><path d="M296.0 91a10 10 0 0 0 10 -10v-40a10 10 0 0 1 10 -10" /></g><path d="M 316.0 31 h 20 m -10 -10 v 20 m 10 -20 v 20"></path></g></svg>