<svg xmlns="http://www.w3.org/2000/svg" class="railroad-diagram" height="119" viewBox="0 0 502.5 119" width="502.5">
<style>
svg.railroad-diagram { background: #fafafa; }
svg.railroad-diagram path { stroke-width:2; stroke:#333; fill:none; }
svg.railroad-diagram text { font:bold 14px monospace; fill:#333; text-anchor:middle; }
svg.railroad-diagram text.comment { font:italic 12px monospace; fill:#888; }
svg.railroad-diagram rect { stroke-width:2; stroke:#333; fill:#fff; }
svg.railroad-diagram rect.group-box { stroke:#aaa; stroke-dasharray:4 2; fill:none; }
</style>
<g transform="translate(.5 .5)">
<g>
<path d="M20 30v20m10 -20v20m-10 -10h20" /></g><path d="M40 40h10" /><g>
<path d="M50 40h0.0" /><path d="M452.5 40h0.0" /><g class="non-terminal ">
<path d="M50.0 40h0.0" /><path d="M163.5 40h0.0" /><rect height="22" width="113.5" x="50" y="29"></rect><text x="106.75" y="44">PrimaryType</text></g><path d="M163.5 40h10" /><g>
<path d="M173.5 40h0.0" /><path d="M452.5 40h0.0" /><path d="M173.5 40a10 10 0 0 0 10 -10v0a10 10 0 0 1 10 -10" /><g>
<path d="M193.5 20h239.0" /></g><path d="M432.5 20a10 10 0 0 1 10 10v0a10 10 0 0 0 10 10" /><path d="M173.5 40h20" /><g>
<path d="M193.5 40h0.0" /><path d="M432.5 40h0.0" /><path d="M193.5 40h20" /><g>
<path d="M213.5 40h0.0" /><path d="M412.5 40h0.0" /><path d="M213.5 40h10" /><g>
<path d="M223.5 40h0.0" /><path d="M402.5 40h0.0" /><g class="terminal ">
<path d="M223.5 40h0.0" /><path d="M269.0 40h0.0" /><rect height="22" rx="10" ry="10" width="45.5" x="223.5" y="29"></rect><text x="246.25" y="44">&quot;*&quot;</text></g><path d="M269.0 40h10" /><path d="M279.0 40h10" /><g class="non-terminal ">
<path d="M289.0 40h0.0" /><path d="M402.5 40h0.0" /><rect height="22" width="113.5" x="289" y="29"></rect><text x="345.75" y="44">PrimaryType</text></g></g><path d="M402.5 40h10" /><path d="M223.5 40a10 10 0 0 0 -10 10v0a10 10 0 0 0 10 10" /><g>
<path d="M223.5 60h179.0" /></g><path d="M402.5 60a10 10 0 0 0 10 -10v0a10 10 0 0 0 -10 -10" /></g><path d="M412.5 40h20" /><path d="M193.5 40a10 10 0 0 1 10 10v19a10 10 0 0 0 10 10" /><g>
<path d="M213.5 79h0.0" /><path d="M412.5 79h0.0" /><path d="M213.5 79h10" /><g>
<path d="M223.5 79h0.0" /><path d="M402.5 79h0.0" /><g class="terminal ">
<path d="M223.5 79h0.0" /><path d="M269.0 79h0.0" /><rect height="22" rx="10" ry="10" width="45.5" x="223.5" y="68"></rect><text x="246.25" y="83">&quot;+&quot;</text></g><path d="M269.0 79h10" /><path d="M279.0 79h10" /><g class="non-terminal ">
<path d="M289.0 79h0.0" /><path d="M402.5 79h0.0" /><rect height="22" width="113.5" x="289" y="68"></rect><text x="345.75" y="83">PrimaryType</text></g></g><path d="M402.5 79h10" /><path d="M223.5 79a10 10 0 0 0 -10 10v0a10 10 0 0 0 10 10" /><g>
<path d="M223.5 99h179.0" /></g><path d="M402.5 99a10 10 0 0 0 10 -10v0a10 10 0 0 0 -10 -10" /></g><path d="M412.5 79a10 10 0 0 0 10 -10v-19a10 10 0 0 1 10 -10" /></g><path d="M432.5 40h20" /></g></g><path d="M452.5 40h10" /><path d="M 462.5 40 h 20 m -10 -10 v 20 m 10 -20 v 20"></path></g></svg>